<svg width="1280" height="804" fill="none" xmlns="http://www.w3.org/2000/svg"><path fill="#B5C2E3" fill-opacity=".76" d="M81 127h1119v299H81z"/><path fill="url(#a)" d="M81 127h1119v299H81z"/><path fill="#B5C2E3" fill-opacity=".76" d="M81 462h1119v299H81z"/><path fill="url(#b)" d="M81 462h1119v299H81z"/><path d="M309.156 78h4.032l2.304-5.408h10.592L328.356 78h4.16l-9.856-22.56h-3.648L309.156 78Zm7.776-8.896 3.84-8.96 3.872 8.96h-7.712Zm28.117 9.248c5.856 0 9.632-3.36 9.632-10.048V55.6h-3.936v12.896c0 4.128-2.144 6.24-5.632 6.24-3.52 0-5.664-2.24-5.664-6.4V55.6h-3.936v12.896c0 6.496 3.712 9.856 9.536 9.856ZM365.908 78h3.968V59.248h7.104V55.6h-18.176v3.648h7.104V78Zm15.566 0h3.936v-9.44h10.688V78h3.936V55.6h-3.936v9.312H385.41V55.6h-3.936V78Zm24.632 0h16.768v-3.52h-12.832v-6.016h11.232v-3.52h-11.232V59.12h12.672V55.6h-16.608V78Zm21.758 0h3.872V62.064L444.088 78h3.296V55.6h-3.872v15.488l-12-15.488h-3.648V78Zm31.105 0h3.968V59.248h7.104V55.6h-18.176v3.648h7.104V78Zm15.79 0h3.936V55.6h-3.936V78Zm20.652.384c4.192 0 6.752-1.536 9.088-3.968l-2.528-2.56c-1.92 1.792-3.68 2.912-6.432 2.912-4.288 0-7.392-3.584-7.392-7.968v-.064c0-4.384 3.104-7.904 7.392-7.904 2.56 0 4.48 1.12 6.272 2.784l2.528-2.912c-2.144-2.048-4.64-3.488-8.768-3.488-6.784 0-11.552 5.216-11.552 11.584v.064c0 6.432 4.864 11.52 11.392 11.52ZM507.036 78h4.032l2.304-5.408h10.592L526.236 78h4.16l-9.856-22.56h-3.648L507.036 78Zm7.776-8.896 3.84-8.96 3.872 8.96h-7.712ZM537.187 78h3.968V59.248h7.104V55.6h-18.176v3.648h7.104V78Zm15.79 0h3.936V55.6h-3.936V78Zm20.94.384c6.88 0 11.744-5.28 11.744-11.584v-.064c0-6.304-4.8-11.52-11.68-11.52s-11.744 5.28-11.744 11.584v.064c0 6.304 4.8 11.52 11.68 11.52Zm.064-3.616c-4.448 0-7.616-3.616-7.616-7.968v-.064c0-4.352 3.104-7.904 7.552-7.904 4.448 0 7.616 3.616 7.616 7.968v.064c0 4.352-3.104 7.904-7.552 7.904ZM590.736 78h3.872V62.064L606.96 78h3.296V55.6h-3.872v15.488l-12-15.488h-3.648V78Zm42.907.16h3.456l9.312-22.56h-4.256l-6.72 17.216-6.752-17.216h-4.352l9.312 22.56Zm23.956.16c4.704 0 8-2.496 8-6.688v-.064c0-3.712-2.464-5.408-7.2-6.56-4.288-1.024-5.312-1.792-5.312-3.52v-.064c0-1.472 1.344-2.656 3.648-2.656 2.048 0 4.064.8 6.08 2.304l2.112-2.976c-2.272-1.824-4.864-2.816-8.128-2.816-4.448 0-7.648 2.656-7.648 6.496v.064c0 4.128 2.688 5.536 7.456 6.688 4.16.96 5.056 1.824 5.056 3.424v.064c0 1.696-1.536 2.816-3.968 2.816-2.784 0-4.928-1.056-7.072-2.912l-2.368 2.816c2.688 2.4 5.92 3.584 9.344 3.584Zm12.245-.32h4.256v-4.384h-4.256V78Zm17.611 0h4.032l2.304-5.408h10.592L706.655 78h4.16l-9.856-22.56h-3.648L687.455 78Zm7.776-8.896 3.84-8.96 3.872 8.96h-7.712Zm28.117 9.248c5.856 0 9.632-3.36 9.632-10.048V55.6h-3.936v12.896c0 4.128-2.144 6.24-5.632 6.24-3.52 0-5.664-2.24-5.664-6.4V55.6h-3.936v12.896c0 6.496 3.712 9.856 9.536 9.856ZM744.207 78h3.968V59.248h7.104V55.6h-18.176v3.648h7.104V78Zm15.566 0h3.936v-9.44h10.688V78h3.936V55.6h-3.936v9.312h-10.688V55.6h-3.936V78Zm35.32.384c6.88 0 11.744-5.28 11.744-11.584v-.064c0-6.304-4.8-11.52-11.68-11.52s-11.744 5.28-11.744 11.584v.064c0 6.304 4.8 11.52 11.68 11.52Zm.064-3.616c-4.448 0-7.616-3.616-7.616-7.968v-.064c0-4.352 3.104-7.904 7.552-7.904 4.448 0 7.616 3.616 7.616 7.968v.064c0 4.352-3.104 7.904-7.552 7.904ZM811.913 78h3.936v-7.808h4.928L826.281 78h4.64l-6.048-8.48c3.136-.896 5.344-3.104 5.344-6.784v-.064c0-1.952-.672-3.616-1.856-4.832-1.44-1.408-3.648-2.24-6.464-2.24h-9.984V78Zm3.936-11.296v-7.52h5.728c2.912 0 4.64 1.312 4.64 3.712v.064c0 2.272-1.792 3.744-4.608 3.744h-5.76ZM835.582 78h3.936V55.6h-3.936V78Zm9.452 0h18.336v-3.488h-13.216l13.216-16V55.6h-17.92v3.488h12.8l-13.216 16V78Zm21.669 0h4.032l2.304-5.408h10.592L885.903 78h4.16l-9.856-22.56h-3.648L866.703 78Zm7.776-8.896 3.84-8.96 3.872 8.96h-7.712ZM896.853 78h3.968V59.248h7.104V55.6h-18.176v3.648h7.104V78Zm15.79 0h3.936V55.6h-3.936V78Zm20.94.384c6.88 0 11.744-5.28 11.744-11.584v-.064c0-6.304-4.8-11.52-11.68-11.52s-11.744 5.28-11.744 11.584v.064c0 6.304 4.8 11.52 11.68 11.52Zm.064-3.616c-4.448 0-7.616-3.616-7.616-7.968v-.064c0-4.352 3.104-7.904 7.552-7.904 4.448 0 7.616 3.616 7.616 7.968v.064c0 4.352-3.104 7.904-7.552 7.904ZM950.402 78h3.872V62.064L966.626 78h3.296V55.6h-3.872v15.488l-12-15.488h-3.648V78ZM347.584 186h1.264v-4.88h6.064v-1.152h-6.064v-4h6.784V174.8h-8.048V186Zm10.324-10.08h1.408v-1.36h-1.408v1.36Zm.08 10.08h1.232v-8.272h-1.232V186Zm4.091 0h1.232v-3.296c0-2.496 1.472-3.792 3.28-3.792h.096v-1.328c-1.568-.064-2.768.928-3.376 2.304v-2.16h-1.232V186Zm9.22.16c1.649 0 2.945-.912 2.945-2.48v-.032c0-1.488-1.376-1.984-2.656-2.368-1.104-.336-2.128-.64-2.128-1.424v-.032c0-.688.624-1.2 1.6-1.2.8 0 1.68.304 2.448.8l.56-.928c-.848-.56-1.968-.912-2.976-.912-1.632 0-2.816.944-2.816 2.368v.032c0 1.52 1.44 1.968 2.736 2.336 1.088.304 2.064.624 2.064 1.456v.032c0 .8-.72 1.312-1.712 1.312-.976 0-1.968-.384-2.864-1.056l-.624.88c.928.752 2.24 1.216 3.423 1.216Zm7.845-.016c.592 0 1.056-.128 1.488-.352v-1.056c-.432.208-.784.288-1.2.288-.832 0-1.392-.368-1.392-1.376v-4.832h2.624v-1.088h-2.624v-2.496h-1.232v2.496h-1.152v1.088h1.152v4.992c0 1.68 1.008 2.336 2.336 2.336Zm12.546.016c2.224 0 3.824-1.248 3.824-3.168v-.032c0-1.712-1.152-2.624-3.648-3.168-2.464-.528-3.04-1.12-3.04-2.176v-.032c0-1.008.928-1.808 2.384-1.808 1.152 0 2.192.368 3.232 1.216l.736-.976c-1.136-.912-2.304-1.376-3.936-1.376-2.128 0-3.68 1.296-3.68 3.056v.032c0 1.84 1.184 2.672 3.76 3.232 2.352.496 2.912 1.088 2.912 2.128v.032c0 1.104-.992 1.904-2.496 1.904-1.552 0-2.672-.528-3.84-1.584l-.784.928c1.344 1.2 2.8 1.792 4.576 1.792Zm8.876-.016c.592 0 1.056-.128 1.488-.352v-1.056c-.432.208-.784.288-1.2.288-.832 0-1.392-.368-1.392-1.376v-4.832h2.624v-1.088h-2.624v-2.496h-1.232v2.496h-1.152v1.088h1.152v4.992c0 1.68 1.008 2.336 2.336 2.336Zm4.202-3.776h6.56c.016-.192.016-.32.016-.432 0-2.432-1.408-4.384-3.856-4.384-2.288 0-3.968 1.92-3.968 4.32 0 2.576 1.856 4.32 4.128 4.32 1.568 0 2.576-.624 3.408-1.552l-.768-.688c-.672.704-1.472 1.168-2.608 1.168-1.456 0-2.736-1.008-2.912-2.752Zm0-.992c.176-1.6 1.264-2.784 2.688-2.784 1.632 0 2.496 1.28 2.64 2.784h-5.328Zm8.733 7.184h1.232v-4.144c.64.928 1.632 1.76 3.168 1.76 2 0 3.952-1.6 3.952-4.304v-.032c0-2.72-1.968-4.288-3.952-4.288-1.52 0-2.496.848-3.168 1.84v-1.664h-1.232v10.832Zm4.176-3.488c-1.536 0-2.992-1.28-2.992-3.2v-.032c0-1.888 1.456-3.184 2.992-3.184 1.568 0 2.912 1.248 2.912 3.2v.032c0 2-1.312 3.184-2.912 3.184Zm6.385-5.664h1.472v-1.68h-1.472v1.68Zm0 6.592h1.472v-1.68h-1.472V186Zm-77.522 24h2.268l1.296-3.042h5.958L357.34 210h2.34l-5.544-12.69h-2.052L346.54 210Zm4.374-5.004 2.16-5.04 2.178 5.04h-4.338Zm15.636 5.202c3.294 0 5.418-1.89 5.418-5.652V197.4h-2.214v7.254c0 2.322-1.206 3.51-3.168 3.51-1.98 0-3.186-1.26-3.186-3.6V197.4h-2.214v7.254c0 3.654 2.088 5.544 5.364 5.544Zm11.553-.198h2.232v-10.548h3.996V197.4h-10.224v2.052h3.996V210Zm8.576 0h2.214v-5.31h6.012V210h2.214v-12.6h-2.214v5.238h-6.012V197.4h-2.214V210Zm13.675 0h9.432v-1.98h-7.218v-3.384h6.318v-1.98h-6.318v-3.276h7.128v-1.98h-9.342V210Zm12.059 0h2.178v-8.964l6.948 8.964h1.854v-12.6h-2.178v8.712l-6.75-8.712h-2.052V210Zm17.317 0h2.232v-10.548h3.996V197.4h-10.224v2.052h3.996V210Zm8.702 0h2.214v-12.6h-2.214V210Zm11.436.216c2.358 0 3.798-.864 5.112-2.232l-1.422-1.44c-1.08 1.008-2.07 1.638-3.618 1.638-2.412 0-4.158-2.016-4.158-4.482v-.036c0-2.466 1.746-4.446 4.158-4.446 1.44 0 2.52.63 3.528 1.566l1.422-1.638c-1.206-1.152-2.61-1.962-4.932-1.962-3.816 0-6.498 2.934-6.498 6.516v.036c0 3.618 2.736 6.48 6.408 6.48Zm6.36-.216h2.268l1.296-3.042h5.958l1.278 3.042h2.34l-5.544-12.69h-2.052L456.228 210Zm4.374-5.004 2.16-5.04 2.177 5.04h-4.337ZM473.007 210h2.232v-10.548h3.996V197.4h-10.224v2.052h3.996V210Zm8.702 0h2.214v-12.6h-2.214V210Zm11.599.216c3.87 0 6.606-2.97 6.606-6.516v-.036c0-3.546-2.7-6.48-6.57-6.48s-6.606 2.97-6.606 6.516v.036c0 3.546 2.7 6.48 6.57 6.48Zm.036-2.034c-2.502 0-4.284-2.034-4.284-4.482v-.036c0-2.448 1.746-4.446 4.248-4.446 2.502 0 4.284 2.034 4.284 4.482v.036c0 2.448-1.746 4.446-4.248 4.446Zm9.245 1.818h2.178v-8.964l6.948 8.964h1.854v-12.6h-2.178v8.712l-6.75-8.712h-2.052V210Z" fill="#3F454F"/><g opacity=".4"><path d="m706.494 326.453 142.385-82.21c1.85-1.083 4.737-1.151 6.428-.181l78.399 45.289c1.714.992 1.488 2.661-.316 3.699-.541.316-27.02 15.585-56.995 32.906l41.049 23.682c.699.406 1.06.925 1.06 1.444 0 .834-.812 1.195-1.556 1.624-32.794 18.923-20.863 12.044-50.386 29.095-1.196.676-3.226.631-4.534-.136-.564-.315-25.396-14.66-41.048-23.704-17.209 9.946-29.524 17.051-29.952 17.299-1.85 1.06-4.737 1.15-6.428.18-1.331-.766-76.752-44.319-78.421-45.288-1.737-.97-1.489-2.639.315-3.699Z" fill="#989AAB"/><path d="m706.494 326.453 142.385-82.21c1.85-1.083 4.737-1.151 6.428-.181l78.399 45.289c1.714.992 1.488 2.661-.316 3.699-.541.316-27.02 15.585-56.995 32.906l41.049 23.682c.699.406 1.06.925 1.06 1.444 0 .834-.812 1.195-1.556 1.624-32.794 18.923-20.863 12.044-50.386 29.095-1.196.676-3.226.631-4.534-.136-.564-.315-25.396-14.66-41.048-23.704-17.209 9.946-29.524 17.051-29.952 17.299-1.85 1.06-4.737 1.15-6.428.18-1.331-.766-76.752-44.319-78.421-45.288-1.737-.97-1.489-2.639.315-3.699Z" fill="url(#c)"/></g><path d="M866.628 350.541a2.368 2.368 0 0 0 2.368-2.369v-46.867a2.368 2.368 0 1 0-4.736 0v46.867a2.368 2.368 0 0 0 2.368 2.369Z" fill="#3F454F"/><path d="m847.524 363.96 40.575-23.434a2.359 2.359 0 1 0-2.368-4.082l-40.575 23.434a2.359 2.359 0 1 0 2.368 4.082Z" fill="#3F454F"/><path d="M888.98 363.103a2.36 2.36 0 0 0-.857-3.225l-40.575-23.434a2.36 2.36 0 1 0-2.369 4.082l40.575 23.434c1.106.654 2.572.271 3.226-.857Z" fill="#3F454F"/><path d="M866.628 351.33a3.167 3.167 0 0 0 3.157-3.158v-8.345a3.167 3.167 0 0 0-3.157-3.157 3.167 3.167 0 0 0-3.158 3.157v8.345a3.167 3.167 0 0 0 3.158 3.158Z" fill="#3F454F"/><path d="M826.529 327.828s4.826 4.985 3.879 10.511c0 0-2.075 2.639-5.12 2.03-3.067-.632-5.074-4.308-8.39-4.669-3.315-.361-10.104-3.067-12.021-8.503-1.917-5.436-.316-7.984 8.548-3.586 8.841 4.42 13.104 4.217 13.104 4.217ZM864.193 327.355l.586 5.683s-5.413 3-8.322-1.33c0 0-.158-4.353-2.143-6.248-1.985-1.894-9.292-6.541-6.563-13.69 0 0 4.556-1.286 9.856 7.262s6.586 8.323 6.586 8.323Z" fill="#767888"/><path d="M865.141 309.988s24.697 9.811 31.305 1.398c6.586-8.412 2.842-23.546 2.842-23.546l-28.757-3.744-5.39 25.892ZM866.156 317.228v9.947a2.44 2.44 0 0 1-2.661 2.435c-2.075-.203-5.21-1.962-8.841-8.818l.699-7.082 10.803 3.518Z" fill="#003052"/><path d="m827.092 305.658 40.575-23.57c.113-.067.248-.045.384.046.834.473 6.879 9.337 33.786 24.651 3.112 1.76 7.555 3.699 10.645 1.895l-40.575 23.569c-3.789 2.21-9.315-1.128-12.788-3.135-9.879-5.706-23.862-14.728-31.395-23.231-.158-.158-.429-.338-.632-.225Z" fill="#CECFD9"/><path d="m890.74 292.937-31.463-2.729s-17.728-2.684-25.193-3.518c-7.466-.835-15.247-3.947-20.209-1.872-4.984 2.075-6.947 4.556-6.022 11.502.677 5.03 2.842 19.487 3.97 27.11.496 3.293 2.774 6.068 5.931 7.15 3.519 1.196 7.804 1.827 9.338-1.353l-.632-25.261s18.743 9.698 27.404 12.112c0 0 27.403 8.21 33.989-.203 6.631-8.413 2.887-22.938 2.887-22.938Z" fill="#989AAB"/><path d="m785.682 289.915.067 82.075c0 .767.609 1.376 1.376 1.376.744 0 1.331-.587 1.376-1.331l2.932-82.007c.068-1.579-1.173-2.91-2.774-2.977-1.579-.068-2.955 1.195-2.977 2.864ZM729.364 254.64l-20.073 72.76a1.38 1.38 0 0 0 .947 1.692 1.358 1.358 0 0 0 1.669-.903l22.96-71.903c.474-1.511-.36-3.135-1.872-3.608a2.849 2.849 0 0 0-3.631 1.962ZM900.911 221.215l25.532 69.895c.27.722 1.037 1.083 1.759.812a1.371 1.371 0 0 0 .835-1.714l-22.667-70.865c-.474-1.511-2.098-2.346-3.609-1.872-1.556.519-2.413 2.188-1.85 3.744Z" fill="#3F454F"/><path d="M713.463 247.535c1.624.948 77.045 44.477 78.421 45.289 1.692.97 4.556.88 6.428-.18 1.443-.835 125.492-72.467 126.732-73.166 1.805-1.037 2.03-2.706.316-3.699-41.658-24.043-24.246-13.983-78.421-45.289-1.692-.97-4.556-.879-6.428.181l-126.732 73.166c-1.805 1.037-2.03 2.706-.316 3.698Z" fill="#F2F2F5"/><path d="M713.463 247.535c1.624.948 77.045 44.477 78.421 45.289 1.692.97 4.556.88 6.428-.18 1.443-.835 125.492-72.467 126.732-73.166 1.805-1.037 2.03-2.706.316-3.699-41.658-24.043-24.246-13.983-78.421-45.289-1.692-.97-4.556-.879-6.428.181l-126.732 73.166c-1.805 1.037-2.03 2.706-.316 3.698Z" fill="url(#d)"/><path d="M712.291 245.844v3.27c0 .632.383 1.241 1.172 1.692l78.421 45.289c1.692.97 4.556.879 6.428-.181l126.733-73.165c.992-.564 1.488-1.309 1.488-2.03v-3.293c0 .722-.496 1.443-1.488 2.03-1.218.699-125.289 72.331-126.733 73.166-1.849 1.06-4.736 1.15-6.428.18-1.33-.767-76.752-44.319-78.421-45.289-.789-.428-1.172-1.037-1.172-1.669Z" fill="#E0E3EB"/><path d="M784.465 225.184c.112.068 26.14 15.089 26.343 15.202.722.406 1.872.406 2.594 0 .112-.068 39.876-23.028 39.988-23.096.722-.406.722-1.083 0-1.489L827.047 200.6c-.722-.406-1.872-.406-2.594 0-1.06.609-29.433 17.006-39.988 23.095-.722.429-.7 1.083 0 1.489Z" fill="#989AAB"/><path d="M784.465 225.184c.112.068 26.14 15.089 26.343 15.202.722.406 1.872.406 2.594 0 .112-.068 39.876-23.028 39.988-23.096.722-.406.722-1.083 0-1.489L827.047 200.6c-.722-.406-1.872-.406-2.594 0-1.06.609-29.433 17.006-39.988 23.095-.722.429-.7 1.083 0 1.489Z" fill="url(#e)"/><path d="M827.701 198.977c.248 1.15-.496 1.736-1.083 2.075L788.231 223.2c-.271.158-.519.18-.722.068-.338-.203-.067.676-6.247-29.614-.181-.812.496-1.737 1.082-2.075l38.388-22.148c.225-.136.496-.181.721-.068.339.203.023-.857 6.248 29.614Z" fill="#CECFD9"/><path d="M821.453 169.363c-.225-.136-.496-.068-.722.067l-38.387 22.148c-.609.339-1.24 1.286-1.082 2.075 6.179 30.268 5.909 29.411 6.247 29.614l-.541-.316c-.293-.158.045.97-6.203-29.591-.135-.744.294-1.624 1.083-2.075l38.387-22.148c.474-.293.699-.068 1.218.226Z" fill="#CECFD9"/><path d="M801.628 181.474a.424.424 0 0 1-.158.541c-.18.113-.383.023-.473-.157a.425.425 0 0 1 .157-.542c.181-.113.384-.022.474.158Z" fill="#CECFD9"/><path d="m820.643 171.573 5.886 28.215-37.981 21.9-5.864-28.193 37.959-21.922Z" fill="#3F454F"/><path d="M851.902 214.809v1.038c0 .248-.18.519-.518.722l-38.072 21.967c-.677.384-1.782.384-2.458 0l-22.194-12.81c-.338-.203-.518-.452-.518-.722v-1.038c0 .248.18.519.518.722.113.068 22.058 12.743 22.194 12.811.676.383 1.781.383 2.458 0 .113-.068 37.959-21.923 38.072-21.99.338-.203.518-.452.518-.7Z" fill="#CECFD9"/><path d="M788.66 224.688c.113.068 21.99 12.698 22.193 12.811.677.383 1.782.383 2.459 0 .112-.068 37.958-21.9 38.071-21.968.677-.383.677-1.037 0-1.421l-22.193-12.811c-.677-.383-1.782-.383-2.459 0-1.759 1.015-31.034 17.931-38.071 21.968-.677.384-.654 1.038 0 1.421Z" fill="#CECFD9"/><path d="M820.19 224.846c.045.135-.293-.09 5.887 3.473a.903.903 0 0 0 .834 0c10.646-6.157 9.924-5.728 9.969-5.774.158-.157.09-.315-.09-.428l-5.729-3.316a.91.91 0 0 0-.834 0l-9.902 5.707c-.135.135-.18.248-.135.338Z" fill="#CECFD9"/><path d="M820.189 224.846c.046.135-.293-.09 5.887 3.473a.911.911 0 0 0 .835 0c10.532-6.089 9.969-5.729 10.036-5.886-.045-.136.339.112-5.886-3.474a.911.911 0 0 0-.835 0c-10.533 6.112-9.991 5.751-10.037 5.887Z" fill="#F2F2F5"/><path d="M820.189 224.846c.046.135-.293-.09 5.887 3.473a.911.911 0 0 0 .835 0c10.532-6.089 9.969-5.729 10.036-5.886-.045-.136.339.112-5.886-3.474a.911.911 0 0 0-.835 0c-10.533 6.112-9.991 5.751-10.037 5.887Z" fill="url(#f)"/><path d="M791.66 223.538c.067.158-.722-.338 13.194 7.691.248.158.699.135.97-.045l34.643-20.006c.271-.158.338-.406.068-.564l-13.037-7.533c-.248-.158-.699-.135-.969.045l-34.644 20.006c-.203.113-.27.271-.225.406Z" fill="#CECFD9"/><path d="M791.659 223.538c.068.158-.722-.338 13.194 7.691.248.158.7.135.97-.045 37.124-21.427 34.779-20.028 34.846-20.231-.045-.136.722.338-13.194-7.691-.248-.136-.699-.136-.97.045-37.079 21.426-34.756 20.028-34.846 20.231Z" fill="#fff"/><path d="M809.297 237.116c0 .225-.293.067-.293-.181-.023-.226.293-.068.293.181ZM808.033 236.371c0 .226-.293.068-.293-.18-.023-.226.293-.046.293.18ZM824.835 205.878v.18l1.038.609v-.18l-1.038-.609ZM825.874 206.487v.18l2.12-1.218v-.203l-2.12 1.241Z" fill="#CECFD9"/><path d="m826.957 204.637-2.12 1.241 1.037.609 2.12-1.241-1.037-.609ZM821.837 207.614v.203l1.038.609v-.203l-1.038-.609Z" fill="#CECFD9"/><path d="M822.874 208.224v.203l2.12-1.241v-.203l-2.12 1.241Z" fill="#CECFD9"/><path d="m823.957 206.374-2.12 1.24 1.037.609 2.12-1.24-1.037-.609ZM818.839 209.351v.203l1.038.609v-.203l-1.038-.609Z" fill="#CECFD9"/><path d="M819.876 209.96v.203l2.12-1.24v-.181l-2.12 1.218Z" fill="#CECFD9"/><path d="m820.959 208.133-2.121 1.218 1.038.609 2.12-1.218-1.037-.609ZM815.837 211.11v.181l1.038.609v-.181l-1.038-.609ZM816.876 211.719v.181l2.12-1.218v-.203l-2.12 1.24Z" fill="#CECFD9"/><path d="m817.959 209.87-2.12 1.24 1.037.609 2.12-1.24-1.037-.609ZM812.839 212.847v.203l1.038.609v-.203l-1.038-.609Z" fill="#CECFD9"/><path d="M813.876 213.456v.203l2.12-1.24v-.203l-2.12 1.24Z" fill="#CECFD9"/><path d="m814.959 211.606-2.12 1.241 1.037.609 2.12-1.241-1.037-.609ZM809.839 214.583v.204l1.038.609v-.203l-1.038-.61Z" fill="#CECFD9"/><path d="M810.876 215.193v.203l2.12-1.241v-.18l-2.12 1.218ZM811.959 213.343l-2.121 1.241 1.038.608 2.12-1.217-1.037-.632ZM806.817 216.343v.18l1.06.609v-.18l-1.06-.609Z" fill="#CECFD9"/><path d="M807.876 216.952v.18l2.12-1.218v-.203l-2.12 1.241ZM808.959 215.103l-2.143 1.24 1.06.609 2.12-1.241-1.037-.608ZM803.817 218.079v.203l1.06.609v-.203l-1.06-.609Z" fill="#CECFD9"/><path d="M804.876 218.688v.203l2.12-1.24v-.203l-2.12 1.24ZM805.959 216.839l-2.143 1.24 1.06.609 2.12-1.24-1.037-.609ZM800.817 219.816v.203l1.06.609v-.203l-1.06-.609ZM801.878 220.425v.203l2.12-1.24v-.203l-2.12 1.24ZM802.961 218.576l-2.143 1.24 1.06.609 2.12-1.24-1.037-.609ZM797.815 221.575v.181l1.06.609v-.181l-1.06-.609ZM798.876 222.184v.181l2.12-1.241v-.18l-2.12 1.24ZM799.959 220.335l-2.143 1.24 1.06.609 2.12-1.24-1.037-.609ZM794.616 223.425v.203l1.06.609v-.203l-1.06-.609Z" fill="#CECFD9"/><path d="M795.675 224.034v.203l2.12-1.241v-.18l-2.12 1.218Z" fill="#CECFD9"/><path d="m796.735 222.207-2.12 1.218 1.06.609 2.12-1.218-1.06-.609ZM826.572 206.893v.18l1.647.97v-.203l-1.647-.947Z" fill="#CECFD9"/><path d="M828.218 207.84v.203l2.12-1.24v-.203l-2.12 1.24Z" fill="#CECFD9"/><path d="m828.693 205.652-2.12 1.24 1.647.948 2.12-1.241-1.647-.947ZM823.574 208.629v.203l1.647.947v-.203l-1.647-.947Z" fill="#CECFD9"/><path d="M825.22 209.576v.203l2.12-1.24v-.181l-2.12 1.218Z" fill="#CECFD9"/><path d="m825.693 207.389-2.12 1.24 1.647.947 2.12-1.217-1.647-.97ZM820.574 210.366v.203l1.647.947v-.18l-1.647-.97ZM822.222 211.336v.18l2.12-1.218v-.203l-2.12 1.241Z" fill="#CECFD9"/><path d="m822.695 209.125-2.12 1.241 1.647.97 2.12-1.241-1.647-.97ZM817.572 212.126v.18l1.647.97v-.203l-1.647-.947ZM819.22 213.073v.203l2.12-1.241v-.202l-2.12 1.24ZM819.693 210.885l-2.12 1.24 1.647.948 2.12-1.241-1.647-.947ZM814.576 213.862v.203l1.647.948v-.203l-1.647-.948Z" fill="#CECFD9"/><path d="M816.222 214.81v.203l2.12-1.241v-.18l-2.12 1.218ZM816.695 212.621l-2.12 1.241 1.647.947 2.12-1.218-1.647-.97ZM811.576 215.598v.203l1.647.947v-.18l-1.647-.97Z" fill="#CECFD9"/><path d="M813.222 216.568v.181l2.12-1.218v-.203l-2.12 1.24Z" fill="#CECFD9"/><path d="m813.695 214.358-2.12 1.24 1.647.97 2.12-1.24-1.647-.97ZM808.576 217.358v.181l1.647.969v-.203l-1.647-.947Z" fill="#CECFD9"/><path d="M810.222 218.306v.203l2.12-1.241v-.203l-2.12 1.241Z" fill="#CECFD9"/><path d="m810.695 216.117-2.12 1.241 1.647.947 2.12-1.24-1.647-.948ZM805.574 219.094v.181l1.647.97v-.203l-1.647-.948ZM807.222 220.042v.203l2.12-1.24v-.181l-2.12 1.218Z" fill="#CECFD9"/><path d="m807.695 217.854-2.12 1.24 1.647.948 2.12-1.218-1.647-.97ZM802.576 220.832v.203l1.647.947v-.181l-1.647-.969ZM804.224 221.801v.181l2.12-1.241v-.18l-2.12 1.24Z" fill="#CECFD9"/><path d="m804.697 219.591-2.12 1.24 1.647.97 2.12-1.241-1.647-.969ZM799.621 222.545v.181l1.647.969v-.203l-1.647-.947Z" fill="#CECFD9"/><path d="M801.267 223.493v.203l2.12-1.241v-.203l-2.12 1.241Z" fill="#CECFD9"/><path d="m801.74 221.305-2.12 1.24 1.647.947 2.12-1.24-1.647-.947ZM796.305 224.418v.18l1.646.97v-.203l-1.646-.947ZM797.952 225.365v.203l2.571-1.489v-.203l-2.571 1.489ZM798.854 222.906l-2.548 1.511 1.646.947 2.571-1.488-1.669-.97ZM827.567 209.17v.203l1.669.97-.022-.203-1.647-.97ZM829.214 210.14l.022.203 3.586-2.097v-.203l-3.608 2.097Z" fill="#CECFD9"/><path d="m831.176 207.095-3.609 2.076 1.647.969 3.608-2.097-1.646-.948ZM828.92 211.201v.18l1.646.97v-.203l-1.646-.947ZM830.566 212.148v.203l4.668-2.706v-.203l-4.668 2.706ZM833.588 208.494l-4.669 2.706 1.647.948 4.668-2.707-1.646-.947ZM833.973 211.178v.203l1.646.947v-.18l-1.646-.97Z" fill="#CECFD9"/><path d="M835.618 212.148v.181l2.12-1.241v-.18l-2.12 1.24ZM836.092 209.938l-2.12 1.24 1.646.97 2.12-1.241-1.646-.969ZM830.973 212.915v.203l1.646.947v-.18l-1.646-.97Z" fill="#CECFD9"/><path d="M832.618 213.885v.18l2.12-1.218v-.203l-2.12 1.241ZM833.092 211.697l-2.12 1.218 1.646.969 2.12-1.24-1.646-.947ZM824.388 210.997v.181l1.669.969-.023-.203-1.646-.947Z" fill="#CECFD9"/><path d="m826.033 211.945.023.203 2.12-1.241v-.18l-2.143 1.218ZM826.529 209.757l-2.142 1.24 1.646.948 2.143-1.218-1.647-.97ZM825.424 213.185v.203l1.646.948v-.181l-1.646-.97ZM827.07 214.155v.181l2.143-1.218-.023-.203-2.12 1.24Z" fill="#CECFD9"/><path d="m827.543 211.945-2.12 1.24 1.646.97 2.12-1.24-1.646-.97ZM827.971 214.674v.181l1.646.969v-.203l-1.646-.947ZM829.618 215.622v.203l2.12-1.241v-.203l-2.12 1.241ZM830.092 213.433l-2.12 1.241 1.646.947 2.12-1.24-1.646-.948ZM821.387 212.734v.203l1.646.947v-.18l-1.646-.97ZM823.033 213.704v.181l2.143-1.218v-.203l-2.143 1.24Z" fill="#CECFD9"/><path d="m823.529 211.494-2.142 1.24 1.646.97 2.143-1.241-1.647-.969ZM822.424 214.944v.181l1.646.97v-.203l-1.646-.948Z" fill="#CECFD9"/><path d="M824.069 215.892v.203l2.12-1.241v-.203l-2.12 1.241Z" fill="#CECFD9"/><path d="m824.543 213.704-2.12 1.24 1.646.948 2.12-1.241-1.646-.947ZM825.018 216.365v.203l1.646.947v-.18l-1.646-.97ZM826.665 217.335v.181l2.12-1.218v-.203l-2.12 1.24ZM827.139 215.125l-2.12 1.24 1.646.97 2.12-1.24-1.646-.97ZM818.385 214.471v.203l1.646.97v-.203l-1.646-.97ZM820.033 215.441v.203l2.143-1.24v-.203l-2.143 1.24ZM820.529 213.253l-2.142 1.218 1.646.97 2.143-1.241-1.647-.947ZM815.387 216.23v.18l1.646.97v-.203l-1.646-.947ZM817.033 217.177v.203l2.143-1.24v-.181l-2.143 1.218Z" fill="#CECFD9"/><path d="m817.507 214.989-2.12 1.241 1.646.947 2.143-1.218-1.669-.97ZM812.387 217.967v.203l1.646.947v-.18l-1.646-.97ZM814.035 218.936v.181l2.143-1.241v-.18l-2.143 1.24Z" fill="#CECFD9"/><path d="m814.509 216.726-2.12 1.24 1.646.97 2.143-1.24-1.669-.97ZM809.387 219.704v.203l1.646.969v-.203l-1.646-.969ZM811.033 220.674v.203l2.143-1.241-.023-.203-2.12 1.241Z" fill="#CECFD9"/><path d="m811.504 218.486-2.12 1.218 1.646.969 2.12-1.24-1.646-.947ZM819.422 216.681v.203l1.646.947v-.203l-1.646-.947ZM821.069 217.629v.203l2.12-1.241v-.18l-2.12 1.218ZM821.543 215.441l-2.12 1.24 1.646.947 2.12-1.218-1.646-.969ZM816.424 218.418v.203l1.646.947v-.18l-1.646-.97ZM818.071 219.388v.18l2.12-1.218v-.203l-2.12 1.241ZM818.545 217.177l-2.12 1.241 1.646.97 2.12-1.241-1.646-.97ZM813.424 220.177v.18l1.646.97v-.203l-1.646-.947ZM815.071 221.124v.203l2.12-1.24v-.203l-2.12 1.24ZM815.545 218.937l-2.12 1.24 1.646.947 2.12-1.24-1.646-.947ZM810.426 221.913v.181l1.646.97v-.203l-1.646-.948Z" fill="#CECFD9"/><path d="M812.071 222.861v.203l2.12-1.241v-.18l-2.12 1.218ZM812.545 220.673l-2.12 1.241 1.646.947 2.12-1.218-1.646-.97ZM813.043 223.334v.203l1.646.948v-.203l-1.646-.948ZM814.689 224.282v.203l11.006-6.405v-.181l-11.006 6.383Z" fill="#CECFD9"/><path d="m824.049 216.929-11.007 6.406 1.647.947 11.006-6.383-1.646-.97ZM806.385 221.463v.18l1.646.97v-.203l-1.646-.947ZM808.033 222.41v.203l2.143-1.241v-.203l-2.143 1.241ZM808.507 220.222l-2.12 1.24 1.646.948 2.143-1.241-1.669-.947ZM807.447 223.673v.203l1.647.947v-.203l-1.647-.947ZM809.094 224.621v.203l2.142-1.241v-.18l-2.142 1.218Z" fill="#CECFD9"/><path d="m809.59 222.433-2.143 1.24 1.647.947 2.142-1.218-1.646-.969ZM809.952 225.139v.18l1.669.97v-.203l-1.669-.947Z" fill="#CECFD9"/><path d="M811.62 226.086v.203l2.12-1.24v-.203l-2.12 1.24Z" fill="#CECFD9"/><path d="m812.094 223.898-2.143 1.241 1.669.947 2.12-1.24-1.646-.948ZM803.411 223.222l.023.181 1.646.969v-.203l-1.669-.947Z" fill="#CECFD9"/><path d="M805.079 224.17v.203l2.12-1.241v-.18l-2.12 1.218ZM805.553 221.982l-2.143 1.24 1.669.947 2.12-1.218-1.646-.969ZM798.808 225.884v.18l1.669.97v-.203l-1.669-.947Z" fill="#CECFD9"/><path d="M800.476 226.831v.203l3.676-2.143v-.203l-3.676 2.143Z" fill="#CECFD9"/><path d="m802.508 223.741-3.699 2.142 1.669.948 3.676-2.143-1.646-.947ZM801.244 227.282v.203l1.647.947v-.18l-1.647-.97ZM802.892 228.252v.18l4.669-2.706v-.203l-4.669 2.729ZM805.914 224.575l-4.669 2.707 1.647.969 4.669-2.729-1.647-.947ZM808.508 227.011v.203l.699.406v-.203l-.699-.406Z" fill="#CECFD9"/><path d="M809.206 227.417v.203l1.782-1.037v-.181l-1.782 1.015ZM810.289 225.996l-1.782 1.015.699.406 1.782-1.015-.699-.406ZM805.576 227.575v.181l.699.406v-.203l-.699-.384ZM806.275 227.959v.203l1.782-1.038v-.18l-1.782 1.015Z" fill="#CECFD9"/><path d="m807.357 226.538-1.781 1.037.699.384 1.782-1.015-.7-.406ZM806.568 228.139v.203l.7.406v-.203l-.7-.406Z" fill="#CECFD9"/><path d="M807.267 228.545v.203l1.782-1.038v-.203l-1.782 1.038ZM808.35 227.101l-1.782 1.038.699.406 1.782-1.038-.699-.406ZM804.65 229.267v.18l.7.406v-.18l-.7-.406ZM805.35 229.672v.181l1.759-1.015v-.203l-1.759 1.037ZM806.433 228.229l-1.782 1.037.699.406 1.759-1.037-.676-.406Z" fill="#CECFD9"/><path opacity=".3" d="M793.001 206.428c0 1.025.82 1.367 1.811.786l21.207-12.427c.991-.581 1.811-1.879 1.811-2.87v-4.858c0-1.025-.82-1.366-1.811-.786l-21.207 12.428c-.991.581-1.811 1.879-1.811 2.87v4.857Z" fill="#A9D0E5"/><path d="m812.63 191.352.103.854-.786.205-.069.65.718-.342-.478.991h.478l.342-.957.273.581.513-.581-.479-.444.718-.479-.068-.546-.752.683.102-.957-.615.342ZM809.417 193.197l.103.854-.786.205-.068.65.717-.342-.478.991.478.034.342-.957.273.581.513-.581-.479-.444.718-.478-.068-.547-.752.683.102-.956-.615.307ZM806.241 195.043l.102.854-.786.205-.068.649.717-.342-.478.991.478.035.342-.957.239.547.513-.547-.479-.444.718-.479-.068-.547-.752.684.068-.957-.546.308ZM803.029 196.888l.102.854-.786.205-.068.649.717-.342-.478.991.478.035.342-.957.274.581.512-.581-.478-.444.717-.479-.068-.547-.752.684.103-.957-.615.308ZM799.816 198.733l.102.854-.786.205-.068.65.718-.342-.479.991.479.034.341-.957.274.581.512-.581-.478-.444.717-.478-.068-.547-.752.683.103-.956-.615.307ZM796.605 200.612l.102.855-.786.205-.068.615.718-.342-.479.991.479.034.341-.957.274.581.512-.581-.478-.444.718-.478-.069-.547-.752.684.103-.957-.615.341Z" fill="#000776"/><path d="m812.732 191.42.102.855-.786.205-.068.649.718-.342-.479.991.479.034.341-.956.274.546.512-.581-.478-.444.717-.478-.102-.547-.752.683.069-.922-.547.307ZM809.519 193.266l.102.854-.786.205-.068.649.718-.342-.479.991.479.035.341-.957.274.581.512-.581-.478-.445.718-.512-.069-.547-.752.684.103-.957-.615.342ZM806.308 195.111l.102.854-.785.205-.069.65.718-.342-.479.991.479.034.341-.957.274.581.512-.581-.478-.444.718-.478-.069-.547-.751.683.102-.957-.615.308ZM803.13 196.956l.103.854-.786.206-.069.649.718-.342-.478.991.478.034.342-.957.273.581.513-.581-.479-.444.718-.478-.068-.547-.752.683.102-.956-.615.307ZM799.918 198.835l.103.855-.786.205-.068.649.717-.342-.478.991.478.034.342-.956.273.58.479-.615-.479-.444.718-.478-.069-.547-.751.683.102-.956-.581.341ZM796.704 200.681l.103.854-.786.205-.068.649.717-.341-.478.991.478.034.342-.957.273.581.513-.581-.478-.444.717-.479-.068-.546-.752.683.103-.957-.616.308Z" fill="#fff"/><path d="M856.75 226.921s-.631-1.195-5.21-.992c-4.578.225-11.345 0-11.096-1.151.248-1.15 1.646-1.488 4.894-1.601 3.248-.113-3.812-4.556-5.12-5.075-1.308-.518-3.293-1.826-2.864-2.638.428-.812.902-.993.902-.993s-1.421-1.015-.925-1.917c.496-.902 1.962-.428 1.962-.428s-.451-.88.316-1.376c.767-.519 3.451.721 3.451.721s.293-.947 1.173-.947c.879 0 6.879 2.707 7.939 3.609 1.06.902 7.894 6.608 7.894 6.608 2.278 1.241-1.015 7.398-3.316 6.18Z" fill="#A88664"/><path d="m860.201 219.817-2.391-1.218s-5.142 3.789-2.864 8.142l2.639 1.714 2.616-8.638Z" fill="#fff"/><path d="M891.055 239.168c-8.12 2.12-32.975-8.435-34.486-10.849-1.511-2.413-.586-8.841 3.113-9.472l21.314 5.368 10.059 14.953Z" fill="#87189D"/><path d="M870.034 220.786s0-3.744-2.796-4.443c-2.797-.699-5.616-3.27-5.368-6.315.225-3.045-.79-5.616-1.444-6.541-.654-.925-.97-1.646 0-2.797.97-1.172-.496-2.097 0-6.067.496-3.969.97-11.209 9.856-11.683 8.887-.473 16.578 2.346 18.45 7.466 1.872 5.142-4.556 18.675-1.511 24.561l-1.06 3.834-16.127 1.985Z" fill="#A88664"/><path d="M877.05 214.245s8.729-.18 9.36-2.616c.474-1.849.609-6.27 2.166-8.593 1.556-2.346 5.142-13.082-3.361-19.013-7.939-5.549-17.886-4.85-22.329.293-4.443 5.142-.564 7.285-.564 7.285s-1.646 2.797.226 6.315c1.872 3.496 1.173 7.466 1.173 7.466l1.398.225s1.872-3.744 4.917-1.646c3.045 2.12 4.443 10.217 7.014 10.284Z" fill="#111"/><path d="m887.199 214.945 2.346 2.999-20.524 8.661 1.015-5.841c-.316-1.918 16.848-7.669 17.163-5.819Z" fill="#F2F2F5"/><path d="m887.199 214.945 2.346 2.999-20.524 8.661 1.015-5.841c-.316-1.918 16.848-7.669 17.163-5.819Z" fill="url(#g)"/><path d="M889.543 217.944c-.022-.022-19.081 2.977-20.411 7.556a2.931 2.931 0 0 1-1.444 1.782l-11.548 5.931c-4.375 20.254.248 46.688-.992 56.115-.519 3.992 1.128 7.962 4.353 10.375 15.021 11.322 23.772 8.052 32.974 3.992a19.307 19.307 0 0 0 11.39-19.441c-1.173-12.45-2.684-21.021.632-30.426 2.684-7.668 2.21-28.666-2.256-31.17-2.075-1.173-4.601-1.218-6.676-.925-2.436.316-4.781-1.759-6.022-3.789Z" fill="#87189D"/><path d="m913.249 310.011-40.575 23.569c4.939-2.864 4.443-12.743 5.277-18.179 1.512-9.833 5.594-18.291 9.406-22.802l40.575-23.569c-3.744 4.42-7.872 12.878-9.405 22.802-.812 5.391-.316 15.292-5.278 18.179Z" fill="#CECFD9"/><path d="m886.546 291.335 40.553-23.591c.113-.068.248-.045.383.045l-40.575 23.569c-.112-.068-.27-.09-.361-.023ZM886.929 291.359l40.575-23.569a.898.898 0 0 1 .293.293l-40.575 23.569a1.19 1.19 0 0 0-.293-.293Z" fill="#E0E3EB"/><path d="m887.223 291.651 40.575-23.591c.248.338.316.766.135.947l-40.552 23.591c.158-.18.09-.608-.158-.947Z" fill="#E0E3EB"/><path d="M886.929 291.358c.428.248.699.97.451 1.241-3.744 4.42-7.849 12.788-9.405 22.802-1.196 7.781.383 25.87-16.69 16.217-10.781-6.135-25.802-15.585-34.035-24.855-.27-.316-.383-.745-.248-.993.158-.27.496-.135.722.113 7.533 8.503 21.539 17.525 31.395 23.231 2.797 1.624 6.18 3.654 9.473 3.834 8.187.474 7.308-11.841 8.323-18.381 2.323-15.089 9.54-23.186 9.563-23.209.09-.09.27-.09.451 0Z" fill="#E0E3EB"/><path d="M828.535 240.724s-2.639-2.955-3.022-4.105c-.384-1.128-3.654-2.729-4.669-3.451-1.015-.721-4.037-2.864-4.42-3.744-.384-.879-2.639-.631-1.512 1.647 1.128 2.278 3.158 2.142 3.406 4.917 0 0-4.781-2.278-5.796-3.902-1.015-1.624-3.654-4.15-3.902-2.391-.248 1.759 3.406 4.533 4.781 6.18 1.376 1.646 7.443 6.18 9.202 8.187l5.932-3.338Z" fill="#A88664"/><path d="M823.505 236.529s1.015-3.541 2.008-5.187c1.015-1.647-.384-3.474-1.263-2.369-.88 1.106-2.775 5.143-2.775 5.143l2.03 2.413ZM819.965 233.191s.879-1.962 1.759-3.496c.88-1.511.88-3.654-.248-3.406-1.128.248-3.519 5.549-3.519 5.549l2.008 1.353ZM813.672 233.868s-1.263-3.632-.88-5.211c.384-1.578 1.579-2.435 1.895-.947.316 1.489.248 4.534 4.668 7.195l-.766 2.391-4.917-3.428Z" fill="#A88664"/><path d="m829.482 241.401-1.759-2.053s-5.751-.767-6.811 3.045l1.015 2.526 7.555-3.518Z" fill="#fff"/><path d="M856.142 233.236s13.262 10.646 7.353 26.524c0 0-13.781 19.419-21.72 16.149-7.939-3.271-20.547-28.982-20.299-31.892.248-2.909 4.669-4.804 8.052-3.022l13.24 16.51s5.548-6.496 6.247-9.902c.699-3.405 4.624-15.201 7.127-14.367Z" fill="#87189D"/><path d="M783.877 246.769c.203.339-.541-.18 13.69 8.097.587.316 1.286.271 1.76 0 2.165-1.24 5.954-3.428 5.999-3.45.338-.203.496-.497.496-.835 0-.406-.113-.677-.496-.925-13.938-8.097-13.375-7.781-13.487-7.826-.564-.226-1.196-.158-1.579.09-6.18 3.586-6.045 3.451-6.225 3.631-.316.271-.361.88-.158 1.218Z" fill="#989AAB"/><path d="M783.877 246.769c.203.339-.541-.18 13.69 8.097.587.316 1.286.271 1.76 0 2.165-1.24 5.954-3.428 5.999-3.45.338-.203.496-.497.496-.835 0-.406-.113-.677-.496-.925-13.938-8.097-13.375-7.781-13.487-7.826-.564-.226-1.196-.158-1.579.09-6.18 3.586-6.045 3.451-6.225 3.631-.316.271-.361.88-.158 1.218Z" fill="url(#h)"/><path d="M784.891 246.295c.18.316-.519-.158 13.059 7.736.541.293 1.24.248 1.669 0 2.052-1.195 5.684-3.27 5.706-3.293.316-.203.474-.473.474-.789 0-.384-.09-.654-.474-.88-13.307-7.736-12.743-7.42-12.856-7.465-.541-.203-1.127-.136-1.511.067-5.887 3.406-5.751 3.293-5.932 3.451-.293.271-.315.857-.135 1.173Z" fill="#fff"/><path d="M784.891 246.295c.18.316-.519-.158 13.059 7.736.541.293 1.24.248 1.669 0 2.052-1.195 5.684-3.27 5.706-3.293.316-.203.474-.473.474-.789 0-.384-.09-.654-.474-.88-13.307-7.736-12.743-7.42-12.856-7.465-.541-.203-1.127-.136-1.511.067-5.887 3.406-5.751 3.293-5.932 3.451-.293.271-.315.857-.135 1.173Z" fill="#E2E2E2"/><path d="M785.343 244.987c-.406.226-.406.632 0 .857 4.24 2.459 8.48 4.917 12.72 7.398.406.226 1.06.226 1.489 0a739.86 739.86 0 0 1 5.706-3.293c.406-.225.406-.631 0-.857-4.24-2.458-8.48-4.917-12.721-7.398-.406-.225-1.06-.225-1.488 0-1.895 1.083-3.789 2.188-5.706 3.293Z" fill="#fff"/><path d="M785.729 245.799c19.735 11.48 7.127 4.15 11.547 6.698l6.857-3.969c-1.466-.857-10.894-6.338-11.548-6.699l-6.856 3.97ZM789.943 242.8c-.113-.068.046-.159.159-.091.113.045-.045.136-.159.091ZM789.245 243.138c-1.399.812-1.399.789-1.308.834.022.023.09.023.112 0l1.331-.767c.068-.022-.068-.09-.135-.067Z" fill="#3F454F"/><path d="M801.606 251.505c.112 0 .09 0 .766-.406.091-.045.091-.135-.022-.203l-.587-.338c-.09-.045-.225-.068-.315-.023-.925.542-.948.384-.023.925.068.045.113.045.181.045Zm.112-.045c-.067.045-.203.045-.27-.023-.654-.383-.654-.36-.654-.428 0-.045.022-.045.676-.429.068-.045.203-.045.271.023l.586.338c.068.045.091.091.023.136 0 0 .135-.068-.632.383ZM802.194 252.385l.564-.338c.135-.068.135-.339 0-.249l-.564.339c-.113.068-.113.316 0 .248ZM803.838 251.303c0 .113.158.022.158-.091 0-.113-.158-.022-.158.091ZM804.086 251.168c0 .113.158.022.158-.091 0-.136-.158-.045-.158.091ZM804.334 251.032c0 .113.158.023.158-.09 0-.136-.158-.045-.158.09ZM804.584 250.874c0 .113.158.023.158-.09 0-.113-.158-.023-.158.09ZM804.809 250.739c0 .113.158.023.158-.09 0-.113-.158-.023-.158.09ZM805.057 250.603c0 .113.158.023.158-.09 0-.113-.158-.023-.158.09ZM801.133 252.881c0 .113-.158.204-.158.091 0-.136.158-.226.158-.091ZM800.885 253.017c0 .113-.158.203-.158.09 0-.113.158-.204.158-.09ZM800.637 253.152c0 .113-.159.203-.159.09 0-.113.159-.203.159-.09ZM800.389 253.287c0 .113-.159.204-.159.091 0-.113.159-.204.159-.091ZM800.164 253.445c0 .113-.158.203-.158.09-.023-.135.158-.226.158-.09ZM799.914 253.581c0 .113-.158.203-.158.09 0-.136.158-.226.158-.09Z" fill="#E0E3EB"/><path d="M355.44 276.496h4.256v-4.416h-1.664c-.128-1.632.8-2.624 2.752-2.976l-.416-1.664c-3.232.256-4.928 1.76-4.928 5.312v3.744Zm-7.424 0h4.256v-4.416h-1.632c-.16-1.632.768-2.624 2.72-2.976l-.416-1.664c-3.232.256-4.928 1.76-4.928 5.312v3.744Zm23.295 13.664h3.392l5.504-16.096 5.504 16.096h3.392l7.808-22.56h-4.128l-5.344 16.608-5.504-16.672h-3.328l-5.504 16.672-5.344-16.608h-4.256l7.808 22.56Zm29.959-.16h3.936v-9.44h10.688V290h3.936v-22.4h-3.936v9.312h-10.688V267.6h-3.936V290Zm35.32.384c6.881 0 11.744-5.28 11.744-11.584v-.064c0-6.304-4.799-11.52-11.679-11.52-6.881 0-11.745 5.28-11.745 11.584v.064c0 6.304 4.8 11.52 11.68 11.52Zm.065-3.616c-4.449 0-7.617-3.616-7.617-7.968v-.064c0-4.352 3.104-7.904 7.552-7.904 4.448 0 7.617 3.616 7.617 7.968v.064c0 4.352-3.105 7.904-7.552 7.904ZM461.404 290h4.032l2.304-5.408h10.592l2.272 5.408h4.16l-9.856-22.56h-3.648L461.404 290Zm7.776-8.896 3.84-8.96 3.872 8.96h-7.712ZM488.925 290h3.936v-7.808h4.928l5.504 7.808h4.64l-6.048-8.48c3.136-.896 5.344-3.104 5.344-6.784v-.064c0-1.952-.672-3.616-1.856-4.832-1.44-1.408-3.648-2.24-6.464-2.24h-9.984V290Zm3.936-11.296v-7.52h5.728c2.912 0 4.64 1.312 4.64 3.712v.064c0 2.272-1.792 3.744-4.608 3.744h-5.76ZM512.37 290h16.768v-3.52h-12.832v-6.016h11.232v-3.52h-11.232v-5.824h12.672v-3.52H512.37V290Zm38.263 0h3.968v-8.928l8.896-13.472h-4.512l-6.336 9.92-6.272-9.92h-4.64l8.896 13.568V290Zm25.416.384c6.88 0 11.744-5.28 11.744-11.584v-.064c0-6.304-4.8-11.52-11.68-11.52s-11.744 5.28-11.744 11.584v.064c0 6.304 4.8 11.52 11.68 11.52Zm.064-3.616c-4.448 0-7.616-3.616-7.616-7.968v-.064c0-4.352 3.104-7.904 7.552-7.904 4.448 0 7.616 3.616 7.616 7.968v.064c0 4.352-3.104 7.904-7.552 7.904Zm25.94 3.584c5.856 0 9.632-3.36 9.632-10.048V267.6h-3.936v12.896c0 4.128-2.144 6.24-5.632 6.24-3.52 0-5.664-2.24-5.664-6.4V267.6h-3.936v12.896c0 6.496 3.712 9.856 9.536 9.856Zm19.098-7.424h2.592l.32-2.592c3.552-.608 6.432-2.432 6.432-6.464v-.064c0-4-3.008-6.496-7.488-6.496-3.456 0-5.856 1.44-7.712 3.552l2.4 2.56c1.536-1.632 3.2-2.528 5.216-2.528 2.304 0 3.68 1.248 3.68 3.04V274c0 2.112-1.856 3.424-5.92 3.584l-.16.16.64 5.184Zm-.928 7.072h4.288v-4.384h-4.288V290Zm21.025-13.344c3.232-.256 4.928-1.76 4.928-5.312V267.6h-4.256v4.384h1.632c.16 1.664-.768 2.656-2.72 3.008l.416 1.664Zm-7.424 0c3.232-.256 4.928-1.76 4.928-5.312V267.6h-4.256v4.384h1.632c.16 1.664-.768 2.656-2.72 3.008l.416 1.664Z" fill="#87189D"/><path d="M835.627 531.16c2.224 0 3.824-1.248 3.824-3.168v-.032c0-1.712-1.152-2.624-3.648-3.168-2.464-.528-3.04-1.12-3.04-2.176v-.032c0-1.008.928-1.808 2.384-1.808 1.152 0 2.192.368 3.232 1.216l.736-.976c-1.136-.912-2.304-1.376-3.936-1.376-2.128 0-3.68 1.296-3.68 3.056v.032c0 1.84 1.184 2.672 3.76 3.232 2.352.496 2.912 1.088 2.912 2.128v.032c0 1.104-.992 1.904-2.496 1.904-1.552 0-2.672-.528-3.84-1.584l-.784.928c1.344 1.2 2.8 1.792 4.576 1.792Zm6.922-3.792h6.561c.016-.192.016-.32.016-.432 0-2.432-1.408-4.384-3.856-4.384-2.288 0-3.968 1.92-3.968 4.32 0 2.576 1.856 4.32 4.128 4.32 1.568 0 2.576-.624 3.408-1.552l-.768-.688c-.672.704-1.472 1.168-2.608 1.168-1.456 0-2.736-1.008-2.913-2.752Zm0-.992c.177-1.6 1.265-2.784 2.689-2.784 1.632 0 2.496 1.28 2.64 2.784h-5.329Zm12.461 4.816c1.552 0 2.544-.672 3.376-1.6l-.784-.736c-.656.704-1.472 1.232-2.528 1.232-1.728 0-3.04-1.424-3.04-3.216v-.032c0-1.776 1.28-3.2 2.96-3.2 1.12 0 1.856.56 2.512 1.248l.816-.864c-.768-.816-1.744-1.472-3.312-1.472-2.416 0-4.24 1.984-4.24 4.32v.032c0 2.32 1.824 4.288 4.24 4.288Zm8.955 0c2.496 0 4.336-1.984 4.336-4.32v-.032c0-2.336-1.824-4.288-4.304-4.288-2.496 0-4.32 1.984-4.32 4.32v.032c0 2.336 1.808 4.288 4.288 4.288Zm.032-1.104c-1.744 0-3.056-1.44-3.056-3.216v-.032c0-1.744 1.232-3.2 3.024-3.2 1.744 0 3.071 1.456 3.071 3.232v.032c0 1.744-1.247 3.184-3.039 3.184Zm6.535.912h1.232v-4.736c0-1.552 1.056-2.592 2.48-2.592 1.456 0 2.288.96 2.288 2.496V531h1.232v-5.136c0-1.968-1.168-3.312-3.168-3.312-1.424 0-2.288.72-2.832 1.616v-1.44h-1.232V531Zm13.332.176c1.52 0 2.496-.848 3.168-1.84V531h1.232v-11.68h-1.232v4.992c-.64-.928-1.632-1.76-3.168-1.76-1.984 0-3.952 1.6-3.952 4.304v.032c0 2.72 1.968 4.288 3.952 4.288Zm.224-1.104c-1.568 0-2.912-1.248-2.912-3.2v-.032c0-2 1.312-3.184 2.912-3.184 1.536 0 2.992 1.28 2.992 3.184v.032c0 1.904-1.456 3.2-2.992 3.2Zm15.774 1.088c2.224 0 3.824-1.248 3.824-3.168v-.032c0-1.712-1.152-2.624-3.648-3.168-2.464-.528-3.04-1.12-3.04-2.176v-.032c0-1.008.928-1.808 2.384-1.808 1.152 0 2.192.368 3.232 1.216l.736-.976c-1.136-.912-2.304-1.376-3.936-1.376-2.128 0-3.68 1.296-3.68 3.056v.032c0 1.84 1.184 2.672 3.76 3.232 2.352.496 2.912 1.088 2.912 2.128v.032c0 1.104-.992 1.904-2.496 1.904-1.552 0-2.672-.528-3.84-1.584l-.784.928c1.344 1.2 2.8 1.792 4.576 1.792Zm8.876-.016c.592 0 1.056-.128 1.488-.352v-1.056c-.432.208-.784.288-1.2.288-.832 0-1.392-.368-1.392-1.376v-4.832h2.624v-1.088h-2.624v-2.496h-1.232v2.496h-1.152v1.088h1.152v4.992c0 1.68 1.008 2.336 2.336 2.336Zm4.202-3.776h6.56c.016-.192.016-.32.016-.432 0-2.432-1.408-4.384-3.856-4.384-2.288 0-3.968 1.92-3.968 4.32 0 2.576 1.856 4.32 4.128 4.32 1.568 0 2.576-.624 3.408-1.552l-.768-.688c-.672.704-1.472 1.168-2.608 1.168-1.456 0-2.736-1.008-2.912-2.752Zm0-.992c.176-1.6 1.264-2.784 2.688-2.784 1.632 0 2.496 1.28 2.64 2.784h-5.328Zm8.733 7.184h1.232v-4.144c.64.928 1.632 1.76 3.168 1.76 2 0 3.952-1.6 3.952-4.304v-.032c0-2.72-1.968-4.288-3.952-4.288-1.52 0-2.496.848-3.168 1.84v-1.664h-1.232v10.832Zm4.176-3.488c-1.536 0-2.992-1.28-2.992-3.2v-.032c0-1.888 1.456-3.184 2.992-3.184 1.568 0 2.912 1.248 2.912 3.2v.032c0 2-1.312 3.184-2.912 3.184Zm6.385-5.664h1.472v-1.68h-1.472v1.68Zm0 6.592h1.472v-1.68h-1.472V531Zm-155.583 24h2.268l1.296-3.042h5.958l1.278 3.042h2.34l-5.544-12.69h-2.052L776.651 555Zm4.374-5.004 2.16-5.04 2.178 5.04h-4.338Zm15.636 5.202c3.294 0 5.418-1.89 5.418-5.652V542.4h-2.214v7.254c0 2.322-1.206 3.51-3.168 3.51-1.98 0-3.186-1.26-3.186-3.6V542.4h-2.214v7.254c0 3.654 2.088 5.544 5.364 5.544Zm11.553-.198h2.232v-10.548h3.996V542.4h-10.224v2.052h3.996V555Zm8.576 0h2.214v-5.31h6.012V555h2.214v-12.6h-2.214v5.238h-6.012V542.4h-2.214V555Zm19.688.216c3.87 0 6.606-2.97 6.606-6.516v-.036c0-3.546-2.7-6.48-6.57-6.48s-6.606 2.97-6.606 6.516v.036c0 3.546 2.7 6.48 6.57 6.48Zm.036-2.034c-2.502 0-4.284-2.034-4.284-4.482v-.036c0-2.448 1.746-4.446 4.248-4.446 2.502 0 4.284 2.034 4.284 4.482v.036c0 2.448-1.746 4.446-4.248 4.446Zm9.245 1.818h2.214v-4.392h2.772l3.096 4.392h2.61l-3.402-4.77c1.764-.504 3.006-1.746 3.006-3.816v-.036c0-1.098-.378-2.034-1.044-2.718-.81-.792-2.052-1.26-3.636-1.26h-5.616V555Zm2.214-6.354v-4.23h3.222c1.638 0 2.61.738 2.61 2.088v.036c0 1.278-1.008 2.106-2.592 2.106h-3.24ZM858.892 555h2.214v-12.6h-2.214V555Zm5.137 0h10.314v-1.962h-7.434l7.434-9V542.4h-10.08v1.962h7.2l-7.434 9V555Zm12.009 0h2.268l1.296-3.042h5.958l1.278 3.042h2.34l-5.544-12.69h-2.052L876.038 555Zm4.374-5.004 2.16-5.04 2.178 5.04h-4.338ZM892.818 555h2.232v-10.548h3.996V542.4h-10.224v2.052h3.996V555Zm8.701 0h2.214v-12.6h-2.214V555Zm11.599.216c3.87 0 6.606-2.97 6.606-6.516v-.036c0-3.546-2.7-6.48-6.57-6.48s-6.606 2.97-6.606 6.516v.036c0 3.546 2.7 6.48 6.57 6.48Zm.036-2.034c-2.502 0-4.284-2.034-4.284-4.482v-.036c0-2.448 1.746-4.446 4.248-4.446 2.502 0 4.284 2.034 4.284 4.482v.036c0 2.448-1.746 4.446-4.248 4.446Zm9.245 1.818h2.178v-8.964l6.948 8.964h1.854v-12.6h-2.178v8.712l-6.75-8.712h-2.052V555Z" fill="#3F454F"/><g opacity=".4"><path d="m574.381 661.453-142.385-82.21c-1.85-1.083-4.737-1.151-6.428-.181l-78.399 45.289c-1.714.992-1.488 2.661.316 3.699.541.316 27.02 15.585 56.995 32.906l-41.049 23.682c-.699.406-1.06.925-1.06 1.444 0 .834.812 1.195 1.556 1.624 32.794 18.923 20.863 12.044 50.386 29.095 1.196.676 3.226.631 4.534-.136.564-.315 25.396-14.66 41.048-23.704 17.209 9.946 29.524 17.051 29.952 17.299 1.85 1.06 4.737 1.15 6.428.18 1.331-.766 76.752-44.319 78.421-45.288 1.737-.97 1.489-2.639-.315-3.699Z" fill="#989AAB"/><path d="m574.381 661.453-142.385-82.21c-1.85-1.083-4.737-1.151-6.428-.181l-78.399 45.289c-1.714.992-1.488 2.661.316 3.699.541.316 27.02 15.585 56.995 32.906l-41.049 23.682c-.699.406-1.06.925-1.06 1.444 0 .834.812 1.195 1.556 1.624 32.794 18.923 20.863 12.044 50.386 29.095 1.196.676 3.226.631 4.534-.136.564-.315 25.396-14.66 41.048-23.704 17.209 9.946 29.524 17.051 29.952 17.299 1.85 1.06 4.737 1.15 6.428.18 1.331-.766 76.752-44.319 78.421-45.288 1.737-.97 1.489-2.639-.315-3.699Z" fill="url(#i)"/></g><path d="M414.246 685.541a2.368 2.368 0 0 1-2.368-2.369v-46.867a2.368 2.368 0 1 1 4.736 0v46.867a2.368 2.368 0 0 1-2.368 2.369Z" fill="#3F454F"/><path d="m433.351 698.96-40.575-23.434a2.359 2.359 0 1 1 2.368-4.082l40.575 23.434a2.359 2.359 0 1 1-2.368 4.082Z" fill="#3F454F"/><path d="M391.894 698.103a2.36 2.36 0 0 1 .857-3.225l40.575-23.434a2.36 2.36 0 1 1 2.369 4.082L395.12 698.96c-1.106.654-2.572.271-3.226-.857Z" fill="#3F454F"/><path d="M414.245 686.33a3.167 3.167 0 0 1-3.157-3.158v-8.345a3.167 3.167 0 0 1 3.157-3.157 3.167 3.167 0 0 1 3.158 3.157v8.345a3.167 3.167 0 0 1-3.158 3.158Z" fill="#3F454F"/><path d="M454.347 662.828s-4.826 4.985-3.879 10.511c0 0 2.075 2.639 5.12 2.03 3.067-.632 5.074-4.308 8.39-4.669 3.315-.361 10.104-3.067 12.021-8.503 1.917-5.436.316-7.984-8.548-3.586-8.841 4.42-13.104 4.217-13.104 4.217ZM416.681 662.355l-.586 5.683s5.413 3 8.322-1.33c0 0 .158-4.353 2.143-6.248 1.985-1.894 9.292-6.541 6.563-13.69 0 0-4.556-1.286-9.856 7.262s-6.586 8.323-6.586 8.323Z" fill="#767888"/><path d="M415.734 644.988s-24.697 9.811-31.305 1.398c-6.586-8.412-2.842-23.546-2.842-23.546l28.757-3.744 5.39 25.892ZM414.72 652.228v9.947a2.44 2.44 0 0 0 2.661 2.435c2.075-.203 5.21-1.962 8.841-8.818l-.699-7.082-10.803 3.518Z" fill="#003052"/><path d="m453.783 640.658-40.575-23.57c-.113-.067-.248-.045-.384.046-.834.473-6.879 9.337-33.786 24.651-3.112 1.76-7.555 3.699-10.645 1.895l40.575 23.569c3.789 2.21 9.315-1.128 12.788-3.135 9.879-5.706 23.862-14.728 31.395-23.231.158-.158.429-.338.632-.225Z" fill="#CECFD9"/><path d="m390.135 627.937 31.463-2.729s17.728-2.684 25.193-3.518c7.466-.835 15.247-3.947 20.209-1.872 4.984 2.075 6.947 4.556 6.022 11.502-.677 5.03-2.842 19.487-3.97 27.11-.496 3.293-2.774 6.068-5.931 7.15-3.519 1.196-7.804 1.827-9.338-1.353l.632-25.261s-18.743 9.698-27.404 12.112c0 0-27.403 8.21-33.989-.203-6.631-8.413-2.887-22.938-2.887-22.938Z" fill="#989AAB"/><path d="m495.193 624.915-.067 82.075c0 .767-.609 1.376-1.376 1.376-.744 0-1.331-.587-1.376-1.331l-2.932-82.007c-.068-1.579 1.173-2.91 2.774-2.977 1.579-.068 2.955 1.195 2.977 2.864ZM551.511 589.64l20.073 72.76a1.38 1.38 0 0 1-.947 1.692 1.358 1.358 0 0 1-1.669-.903l-22.96-71.903c-.474-1.511.36-3.135 1.872-3.608a2.849 2.849 0 0 1 3.631 1.962ZM379.964 556.215l-25.532 69.895c-.27.722-1.037 1.083-1.759.812a1.371 1.371 0 0 1-.835-1.714l22.667-70.865c.474-1.511 2.098-2.346 3.609-1.872 1.556.519 2.413 2.188 1.85 3.744Z" fill="#3F454F"/><path d="M567.411 582.535c-1.624.948-77.045 44.477-78.421 45.289-1.692.97-4.556.88-6.428-.18-1.443-.835-125.492-72.467-126.732-73.166-1.805-1.037-2.03-2.706-.316-3.699 41.658-24.043 24.246-13.983 78.421-45.289 1.692-.97 4.556-.879 6.428.181l126.732 73.166c1.805 1.037 2.03 2.706.316 3.698Z" fill="#F2F2F5"/><path d="M567.411 582.535c-1.624.948-77.045 44.477-78.421 45.289-1.692.97-4.556.88-6.428-.18-1.443-.835-125.492-72.467-126.732-73.166-1.805-1.037-2.03-2.706-.316-3.699 41.658-24.043 24.246-13.983 78.421-45.289 1.692-.97 4.556-.879 6.428.181l126.732 73.166c1.805 1.037 2.03 2.706.316 3.698Z" fill="url(#j)"/><path d="M568.584 580.844v3.27c0 .632-.383 1.241-1.172 1.692l-78.421 45.289c-1.692.97-4.556.879-6.428-.181L355.83 557.749c-.992-.564-1.488-1.309-1.488-2.03v-3.293c0 .722.496 1.443 1.488 2.03 1.218.699 125.289 72.331 126.733 73.166 1.849 1.06 4.736 1.15 6.428.18 1.33-.767 76.752-44.319 78.421-45.289.789-.428 1.172-1.037 1.172-1.669Z" fill="#E0E3EB"/><path d="M496.41 560.184c-.112.068-26.14 15.089-26.343 15.202-.722.406-1.872.406-2.594 0-.112-.068-39.876-23.028-39.988-23.096-.722-.406-.722-1.083 0-1.489l26.343-15.201c.722-.406 1.872-.406 2.594 0 1.06.609 29.433 17.006 39.988 23.095.722.429.7 1.083 0 1.489Z" fill="#989AAB"/><path d="M496.41 560.184c-.112.068-26.14 15.089-26.343 15.202-.722.406-1.872.406-2.594 0-.112-.068-39.876-23.028-39.988-23.096-.722-.406-.722-1.083 0-1.489l26.343-15.201c.722-.406 1.872-.406 2.594 0 1.06.609 29.433 17.006 39.988 23.095.722.429.7 1.083 0 1.489Z" fill="url(#k)"/><path d="M453.175 533.977c-.248 1.15.496 1.736 1.083 2.075l38.387 22.148c.271.158.519.18.722.068.338-.203.067.676 6.247-29.614.181-.812-.496-1.737-1.082-2.075l-38.388-22.148c-.225-.136-.496-.181-.721-.068-.339.203-.023-.857-6.248 29.614Z" fill="#CECFD9"/><path d="M459.422 504.363c.225-.136.496-.068.722.067l38.387 22.148c.609.339 1.24 1.286 1.082 2.075-6.179 30.268-5.909 29.411-6.247 29.614l.541-.316c.293-.158-.045.97 6.203-29.591.135-.744-.294-1.624-1.083-2.075l-38.387-22.148c-.474-.293-.699-.068-1.218.226Z" fill="#CECFD9"/><path d="M479.248 516.474a.424.424 0 0 0 .158.541c.18.113.383.023.473-.157a.425.425 0 0 0-.157-.542c-.181-.113-.384-.022-.474.158Z" fill="#CECFD9"/><path d="m460.234 506.573-5.886 28.215 37.981 21.9 5.864-28.193-37.959-21.922Z" fill="#3F454F"/><path d="M428.973 549.809v1.038c0 .248.18.519.518.722l38.072 21.967c.677.384 1.782.384 2.458 0l22.194-12.81c.338-.203.518-.452.518-.722v-1.038c0 .248-.18.519-.518.722-.113.068-22.058 12.743-22.194 12.811-.676.383-1.781.383-2.458 0-.113-.068-37.959-21.923-38.072-21.99-.338-.203-.518-.452-.518-.7Z" fill="#CECFD9"/><path d="M492.215 559.688c-.113.068-21.99 12.698-22.193 12.811-.677.383-1.782.383-2.459 0-.112-.068-37.958-21.9-38.071-21.968-.677-.383-.677-1.037 0-1.421l22.193-12.811c.677-.383 1.782-.383 2.459 0 1.759 1.015 31.034 17.931 38.071 21.968.677.384.654 1.038 0 1.421Z" fill="#CECFD9"/><path d="M460.684 559.846c-.045.135.293-.09-5.887 3.473a.903.903 0 0 1-.834 0c-10.646-6.157-9.924-5.728-9.969-5.774-.158-.157-.09-.315.09-.428l5.729-3.316a.91.91 0 0 1 .834 0l9.902 5.707c.135.135.18.248.135.338Z" fill="#CECFD9"/><path d="M460.685 559.846c-.046.135.293-.09-5.887 3.473a.911.911 0 0 1-.835 0c-10.532-6.089-9.969-5.729-10.036-5.886.045-.136-.339.112 5.886-3.474a.911.911 0 0 1 .835 0c10.533 6.112 9.991 5.751 10.037 5.887Z" fill="#F2F2F5"/><path d="M460.685 559.846c-.046.135.293-.09-5.887 3.473a.911.911 0 0 1-.835 0c-10.532-6.089-9.969-5.729-10.036-5.886.045-.136-.339.112 5.886-3.474a.911.911 0 0 1 .835 0c10.533 6.112 9.991 5.751 10.037 5.887Z" fill="url(#l)"/><path d="M489.215 558.538c-.067.158.722-.338-13.194 7.691-.248.158-.699.135-.97-.045l-34.643-20.006c-.271-.158-.338-.406-.068-.564l13.037-7.533c.248-.158.699-.135.969.045l34.644 20.006c.203.113.27.271.225.406Z" fill="#CECFD9"/><path d="M489.216 558.538c-.068.158.722-.338-13.194 7.691-.248.158-.7.135-.97-.045-37.124-21.427-34.779-20.028-34.846-20.231.045-.136-.722.338 13.194-7.691.248-.136.699-.136.97.045 37.079 21.426 34.756 20.028 34.846 20.231Z" fill="#fff"/><path d="M471.578 572.116c0 .225.293.067.293-.181.023-.226-.293-.068-.293.181ZM472.841 571.371c0 .226.293.068.293-.18.023-.226-.293-.046-.293.18ZM456.041 540.878v.18l-1.038.609v-.18l1.038-.609ZM455.003 541.487v.18l-2.12-1.218v-.203l2.12 1.241Z" fill="#CECFD9"/><path d="m453.919 539.637 2.12 1.241-1.037.609-2.12-1.241 1.037-.609ZM459.039 542.614v.203l-1.037.609v-.203l1.037-.609ZM458.002 543.224v.203l-2.12-1.241v-.203l2.12 1.241Z" fill="#CECFD9"/><path d="m456.92 541.374 2.12 1.24-1.037.609-2.12-1.24 1.037-.609ZM462.038 544.351v.203l-1.038.609v-.203l1.038-.609ZM461 544.96v.203l-2.12-1.24v-.181l2.12 1.218Z" fill="#CECFD9"/><path d="m459.917 543.133 2.121 1.218-1.038.609-2.12-1.218 1.037-.609ZM465.039 546.11v.181l-1.038.609v-.181l1.038-.609ZM464 546.719v.181l-2.12-1.218v-.203l2.12 1.24ZM462.917 544.87l2.12 1.24-1.037.609-2.12-1.24 1.037-.609ZM468.038 547.847v.203l-1.038.609v-.203l1.038-.609ZM467 548.456v.203l-2.12-1.24v-.203l2.12 1.24ZM465.917 546.606l2.12 1.241-1.037.609-2.12-1.241 1.037-.609ZM471.039 549.583v.204l-1.038.609v-.203l1.038-.61ZM470.001 550.193v.203l-2.12-1.241v-.18l2.12 1.218Z" fill="#CECFD9"/><path d="m468.919 548.343 2.12 1.241-1.037.608-2.12-1.217 1.037-.632ZM474.06 551.343v.18l-1.06.609v-.18l1.06-.609ZM473 551.952v.18l-2.12-1.218v-.203l2.12 1.241Z" fill="#CECFD9"/><path d="m471.918 550.103 2.143 1.24-1.06.609-2.12-1.241 1.037-.608ZM477.06 553.079v.203l-1.06.609v-.203l1.06-.609ZM476 553.688v.203l-2.12-1.24v-.203l2.12 1.24Z" fill="#CECFD9"/><path d="m474.917 551.839 2.143 1.24-1.06.609-2.12-1.24 1.037-.609ZM480.059 554.816v.203l-1.06.609v-.203l1.06-.609ZM478.998 555.425v.203l-2.12-1.24v-.203l2.12 1.24Z" fill="#CECFD9"/><path d="m477.915 553.576 2.143 1.24-1.06.609-2.12-1.24 1.037-.609ZM483.059 556.575v.181l-1.06.609v-.181l1.06-.609ZM481.999 557.184v.181l-2.12-1.241v-.18l2.12 1.24Z" fill="#CECFD9"/><path d="m480.916 555.335 2.143 1.24-1.06.609-2.12-1.24 1.037-.609ZM486.261 558.425v.203l-1.06.609v-.203l1.06-.609ZM485.201 559.034v.203l-2.12-1.241v-.18l2.12 1.218Z" fill="#CECFD9"/><path d="m484.141 557.207 2.12 1.218-1.06.609-2.12-1.218 1.06-.609ZM454.303 541.893v.18l-1.647.97v-.203l1.647-.947ZM452.656 542.84v.203l-2.12-1.24v-.203l2.12 1.24Z" fill="#CECFD9"/><path d="m452.182 540.652 2.12 1.24-1.647.948-2.12-1.241 1.647-.947ZM457.302 543.629v.203l-1.647.947v-.203l1.647-.947ZM455.655 544.576v.203l-2.12-1.24v-.181l2.12 1.218Z" fill="#CECFD9"/><path d="m455.183 542.389 2.12 1.24-1.647.947-2.12-1.217 1.647-.97ZM460.302 545.366v.203l-1.647.947v-.18l1.647-.97ZM458.655 546.336v.18l-2.12-1.218v-.203l2.12 1.241Z" fill="#CECFD9"/><path d="m458.182 544.125 2.12 1.241-1.647.97-2.12-1.241 1.647-.97ZM463.302 547.126v.18l-1.647.97v-.203l1.647-.947ZM461.655 548.073v.203l-2.12-1.241v-.202l2.12 1.24ZM461.182 545.885l2.12 1.24-1.647.948-2.12-1.241 1.647-.947ZM466.302 548.862v.203l-1.647.948v-.203l1.647-.948ZM464.655 549.81v.203l-2.12-1.241v-.18l2.12 1.218ZM464.182 547.621l2.12 1.241-1.647.947-2.12-1.218 1.647-.97ZM469.301 550.598v.203l-1.647.947v-.18l1.647-.97ZM467.654 551.568v.181l-2.12-1.218v-.203l2.12 1.24Z" fill="#CECFD9"/><path d="m467.181 549.358 2.12 1.24-1.647.97-2.12-1.24 1.647-.97ZM472.301 552.358v.181l-1.647.969v-.203l1.647-.947ZM470.654 553.306v.203l-2.12-1.241v-.203l2.12 1.241ZM470.181 551.117l2.12 1.241-1.647.947-2.12-1.24 1.647-.948ZM475.301 554.094v.181l-1.647.97v-.203l1.647-.948ZM473.654 555.042v.203l-2.12-1.24v-.181l2.12 1.218Z" fill="#CECFD9"/><path d="m473.181 552.854 2.12 1.24-1.647.948-2.12-1.218 1.647-.97ZM478.3 555.832v.203l-1.647.947v-.181l1.647-.969Z" fill="#CECFD9"/><path d="M476.654 556.801v.181l-2.12-1.241v-.18l2.12 1.24Z" fill="#CECFD9"/><path d="m476.18 554.591 2.12 1.24-1.647.97-2.12-1.241 1.647-.969ZM481.256 557.545v.181l-1.647.969v-.203l1.647-.947ZM479.609 558.493v.203l-2.12-1.241v-.203l2.12 1.241Z" fill="#CECFD9"/><path d="m479.136 556.305 2.12 1.24-1.647.947-2.12-1.24 1.647-.947ZM484.57 559.418v.18l-1.646.97v-.203l1.646-.947ZM482.924 560.365v.203l-2.571-1.489v-.203l2.571 1.489ZM482.022 557.906l2.548 1.511-1.646.947-2.571-1.488 1.669-.97ZM453.309 544.17v.203l-1.669.97.022-.203 1.647-.97ZM451.662 545.14l-.022.203-3.586-2.097v-.203l3.608 2.097Z" fill="#CECFD9"/><path d="m449.7 542.095 3.609 2.076-1.647.969-3.608-2.097 1.646-.948ZM451.957 546.201v.18l-1.646.97v-.203l1.646-.947ZM450.31 547.148v.203l-4.668-2.706v-.203l4.668 2.706ZM447.288 543.494l4.669 2.706-1.647.948-4.668-2.707 1.646-.947ZM446.904 546.178v.203l-1.646.947v-.18l1.646-.97ZM445.258 547.148v.181l-2.12-1.241v-.18l2.12 1.24Z" fill="#CECFD9"/><path d="m444.784 544.938 2.12 1.24-1.646.97-2.12-1.241 1.646-.969ZM449.904 547.915v.203l-1.646.947v-.18l1.646-.97ZM448.258 548.885v.18l-2.12-1.218v-.203l2.12 1.241ZM447.784 546.697l2.12 1.218-1.646.969-2.12-1.24 1.646-.947ZM456.49 545.997v.181l-1.669.969.023-.203 1.646-.947Z" fill="#CECFD9"/><path d="m454.844 546.945-.023.203-2.12-1.241v-.18l2.143 1.218ZM454.348 544.757l2.142 1.24-1.646.948-2.143-1.218 1.647-.97ZM455.453 548.185v.203l-1.646.948v-.181l1.646-.97Z" fill="#CECFD9"/><path d="M453.807 549.155v.181l-2.143-1.218.023-.203 2.12 1.24ZM453.335 546.945l2.12 1.24-1.646.97-2.121-1.24 1.647-.97ZM452.904 549.674v.181l-1.646.969v-.203l1.646-.947ZM451.258 550.622v.203l-2.12-1.241v-.203l2.12 1.241ZM450.784 548.433l2.12 1.241-1.646.947-2.12-1.24 1.646-.948ZM459.489 547.734v.203l-1.646.947v-.18l1.646-.97Z" fill="#CECFD9"/><path d="M457.843 548.704v.181l-2.143-1.218v-.203l2.143 1.24ZM457.348 546.494l2.142 1.24-1.646.97-2.143-1.241 1.647-.969ZM458.453 549.944v.181l-1.646.97v-.203l1.646-.948Z" fill="#CECFD9"/><path d="M456.807 550.892v.203l-2.12-1.241v-.203l2.12 1.241ZM456.333 548.704l2.12 1.24-1.646.948-2.12-1.241 1.646-.947ZM455.859 551.365v.203l-1.646.947v-.18l1.646-.97Z" fill="#CECFD9"/><path d="M454.213 552.335v.181l-2.12-1.218v-.203l2.12 1.24Z" fill="#CECFD9"/><path d="m453.738 550.125 2.12 1.24-1.646.97-2.12-1.24 1.646-.97ZM462.49 549.471v.203l-1.646.97v-.203l1.646-.97ZM460.843 550.441v.203l-2.143-1.24v-.203l2.143 1.24Z" fill="#CECFD9"/><path d="m460.348 548.253 2.142 1.218-1.646.97-2.143-1.241 1.647-.947ZM465.49 551.23v.18l-1.646.97v-.203l1.646-.947ZM463.843 552.177v.203l-2.143-1.24v-.181l2.143 1.218Z" fill="#CECFD9"/><path d="m463.369 549.989 2.12 1.241-1.646.947-2.143-1.218 1.669-.97ZM468.489 552.967v.203l-1.646.947v-.18l1.646-.97ZM466.842 553.936v.181l-2.143-1.241v-.18l2.143 1.24ZM466.368 551.726l2.12 1.24-1.646.97-2.143-1.24 1.669-.97ZM471.489 554.704v.203l-1.646.969v-.203l1.646-.969Z" fill="#CECFD9"/><path d="M469.843 555.674v.203l-2.143-1.241.023-.203 2.12 1.241ZM469.371 553.486l2.12 1.218-1.646.969-2.12-1.24 1.646-.947ZM461.452 551.681v.203l-1.646.947v-.203l1.646-.947ZM459.806 552.629v.203l-2.12-1.241v-.18l2.12 1.218Z" fill="#CECFD9"/><path d="m459.332 550.441 2.12 1.24-1.646.947-2.12-1.218 1.646-.969ZM464.452 553.418v.203l-1.646.947v-.18l1.646-.97ZM462.805 554.388v.18l-2.12-1.218v-.203l2.12 1.241Z" fill="#CECFD9"/><path d="m462.331 552.177 2.12 1.241-1.646.97-2.12-1.241 1.646-.97ZM467.451 555.177v.18l-1.646.97v-.203l1.646-.947ZM465.805 556.124v.203l-2.12-1.24v-.203l2.12 1.24Z" fill="#CECFD9"/><path d="m465.331 553.937 2.12 1.24-1.646.947-2.12-1.24 1.646-.947ZM470.451 556.913v.181l-1.646.97v-.203l1.646-.948ZM468.805 557.861v.203l-2.12-1.241v-.18l2.12 1.218Z" fill="#CECFD9"/><path d="m468.332 555.673 2.12 1.241-1.646.947-2.12-1.218 1.646-.97ZM467.835 558.334v.203l-1.647.948v-.203l1.647-.948ZM466.188 559.282v.203l-11.006-6.405v-.181l11.006 6.383Z" fill="#CECFD9"/><path d="m456.828 551.929 11.007 6.406-1.647.947-11.006-6.383 1.646-.97ZM474.489 556.463v.18l-1.646.97v-.203l1.646-.947ZM472.842 557.41v.203l-2.143-1.241v-.203l2.143 1.241Z" fill="#CECFD9"/><path d="m472.369 555.222 2.12 1.24-1.646.948-2.143-1.241 1.669-.947ZM473.43 558.673v.203l-1.647.947v-.203l1.647-.947ZM471.782 559.621v.203l-2.142-1.241v-.18l2.142 1.218ZM471.286 557.433l2.143 1.24-1.647.947-2.142-1.218 1.646-.969ZM470.925 560.139v.18l-1.669.97v-.203l1.669-.947ZM469.256 561.086v.203l-2.12-1.24v-.203l2.12 1.24Z" fill="#CECFD9"/><path d="m468.782 558.898 2.143 1.241-1.669.947-2.12-1.24 1.646-.948ZM477.465 558.222l-.023.181-1.646.969v-.203l1.669-.947Z" fill="#CECFD9"/><path d="M475.796 559.17v.203l-2.12-1.241v-.18l2.12 1.218ZM475.322 556.982l2.143 1.24-1.669.947-2.12-1.218 1.646-.969ZM482.067 560.884v.18l-1.669.97v-.203l1.669-.947ZM480.398 561.831v.203l-3.676-2.143v-.203l3.676 2.143Z" fill="#CECFD9"/><path d="m478.367 558.741 3.699 2.142-1.669.948-3.676-2.143 1.646-.947ZM479.631 562.282v.203l-1.647.947v-.18l1.647-.97Z" fill="#CECFD9"/><path d="M477.984 563.252v.18l-4.669-2.706v-.203l4.669 2.729ZM474.962 559.575l4.669 2.707-1.647.969-4.669-2.729 1.647-.947ZM472.368 562.011v.203l-.699.406v-.203l.699-.406ZM471.669 562.417v.203l-1.782-1.037v-.181l1.782 1.015Z" fill="#CECFD9"/><path d="m470.586 560.996 1.782 1.015-.699.406-1.782-1.015.699-.406ZM475.3 562.575v.181l-.699.406v-.203l.699-.384ZM474.6 562.959v.203l-1.782-1.038v-.18l1.782 1.015Z" fill="#CECFD9"/><path d="m473.518 561.538 1.781 1.037-.699.384-1.782-1.015.7-.406ZM474.309 563.139v.203l-.7.406v-.203l.7-.406ZM473.609 563.545v.203l-1.782-1.038v-.203l1.782 1.038Z" fill="#CECFD9"/><path d="m472.527 562.101 1.782 1.038-.699.406-1.782-1.038.699-.406ZM476.226 564.267v.18l-.7.406v-.18l.7-.406ZM475.526 564.672v.181l-1.759-1.015v-.203l1.759 1.037Z" fill="#CECFD9"/><path d="m474.443 563.229 1.782 1.037-.699.406-1.759-1.037.676-.406Z" fill="#CECFD9"/><circle cx="475.725" cy="532.521" r="6.02" fill="#007C8A"/><path d="M485.797 535.278c-.086-1.665-1.149-3.297-2.575-4.147.539-1.3.201-3.097-.973-4.513-1.175-1.416-2.839-2.028-4.16-1.668-.597-1.586-1.999-2.919-3.573-3.255-1.575-.335-2.864.425-3.312 1.789-1.385-.937-3.025-1.029-4.077-.087-1.052.941-1.212 2.632-.523 4.194-1.364.255-2.281 1.466-2.195 3.131.087 1.665 1.149 3.297 2.575 4.147-.539 1.3-.202 3.101.973 4.513 1.172 1.411 2.838 2.032 4.161 1.668.597 1.581 1.998 2.919 3.573 3.254 1.575.336 2.863-.424 3.311-1.788 1.397.944 3.026 1.025 4.078.087 1.052-.942 1.211-2.633.522-4.194 1.369-.255 2.282-1.466 2.195-3.131Zm-6.148-3.24-5.176 4.575c-.172.151-.459.085-.65-.143l-3.34-4.044c-.187-.227-.205-.537-.033-.688l1.028-.908c.172-.151.459-.085.651.143l1.856 2.252 3.841-3.392c.172-.151.459-.085.651.143l1.138 1.378c.189.224.202.532.034.684Z" fill="#fff"/><path d="M424.124 561.921s.631-1.195 5.21-.992c4.578.225 11.345 0 11.097-1.151-.249-1.15-1.647-1.488-4.895-1.601-3.248-.113 3.812-4.556 5.12-5.075 1.308-.518 3.293-1.826 2.864-2.638-.428-.812-.902-.993-.902-.993s1.421-1.015.925-1.917c-.496-.902-1.962-.428-1.962-.428s.451-.88-.316-1.376c-.767-.519-3.451.721-3.451.721s-.293-.947-1.173-.947c-.879 0-6.879 2.707-7.939 3.609-1.06.902-7.894 6.608-7.894 6.608-2.278 1.241 1.015 7.398 3.316 6.18Z" fill="#A88664"/><path d="m420.674 554.817 2.391-1.218s5.142 3.789 2.864 8.142l-2.639 1.714-2.616-8.638Z" fill="#fff"/><path d="M389.819 574.168c8.12 2.12 32.975-8.435 34.486-10.849 1.511-2.413.586-8.841-3.113-9.472l-21.313 5.368-10.06 14.953Z" fill="#87189D"/><path d="M410.841 555.786s0-3.744 2.796-4.443c2.797-.699 5.616-3.27 5.368-6.315-.225-3.045.79-5.616 1.444-6.541.654-.925.97-1.646 0-2.797-.97-1.172.496-2.097 0-6.067-.496-3.969-.97-11.209-9.856-11.683-8.887-.473-16.578 2.346-18.45 7.466-1.872 5.142 4.556 18.675 1.511 24.561l1.06 3.834 16.127 1.985Z" fill="#A88664"/><path d="M403.826 549.245s-8.729-.18-9.36-2.616c-.474-1.849-.609-6.27-2.166-8.593-1.556-2.346-5.142-13.082 3.361-19.013 7.939-5.549 17.885-4.85 22.329.293 4.443 5.142.564 7.285.564 7.285s1.646 2.797-.226 6.315c-1.872 3.496-1.173 7.466-1.173 7.466l-1.398.225s-1.872-3.744-4.917-1.646c-3.045 2.12-4.443 10.217-7.014 10.284Z" fill="#111"/><path d="m393.676 549.945-2.346 2.999 20.524 8.661-1.015-5.841c.316-1.918-16.848-7.669-17.163-5.819Z" fill="#F2F2F5"/><path d="m393.676 549.945-2.346 2.999 20.524 8.661-1.015-5.841c.316-1.918-16.848-7.669-17.163-5.819Z" fill="url(#m)"/><path d="M391.331 552.944c.022-.022 19.081 2.977 20.411 7.556a2.931 2.931 0 0 0 1.444 1.782l11.548 5.931c4.375 20.254-.248 46.688.992 56.115.519 3.992-1.128 7.962-4.353 10.375-15.021 11.322-23.772 8.052-32.974 3.992a19.307 19.307 0 0 1-11.39-19.441c1.173-12.45 2.684-21.021-.632-30.426-2.684-7.668-2.21-28.666 2.256-31.17 2.075-1.173 4.601-1.218 6.676-.925 2.436.316 4.781-1.759 6.022-3.789Z" fill="#87189D"/><path d="m367.626 645.011 40.575 23.569c-4.939-2.864-4.443-12.743-5.277-18.179-1.512-9.833-5.594-18.291-9.406-22.802l-40.575-23.569c3.744 4.42 7.872 12.878 9.405 22.802.812 5.391.316 15.292 5.278 18.179Z" fill="#CECFD9"/><path d="m394.33 626.335-40.552-23.591c-.113-.068-.248-.045-.383.045l40.575 23.569c.112-.068.27-.09.36-.023ZM393.948 626.359l-40.575-23.569a.898.898 0 0 0-.293.293l40.575 23.569a1.19 1.19 0 0 1 .293-.293Z" fill="#E0E3EB"/><path d="m393.653 626.651-40.575-23.591c-.248.338-.316.766-.135.947l40.552 23.591c-.158-.18-.09-.608.158-.947Z" fill="#E0E3EB"/><path d="M393.946 626.358c-.428.248-.699.97-.451 1.241 3.744 4.42 7.849 12.788 9.405 22.802 1.196 7.781-.383 25.87 16.69 16.217 10.781-6.135 25.802-15.585 34.035-24.855.27-.316.383-.745.248-.993-.158-.27-.496-.135-.722.113-7.533 8.503-21.539 17.525-31.395 23.231-2.797 1.624-6.18 3.654-9.473 3.834-8.187.474-7.308-11.841-8.323-18.381-2.323-15.089-9.54-23.186-9.563-23.209-.09-.09-.27-.09-.451 0Z" fill="#E0E3EB"/><path d="M452.34 575.724s2.639-2.955 3.022-4.105c.384-1.128 3.654-2.729 4.669-3.451 1.015-.721 4.037-2.864 4.42-3.744.384-.879 2.639-.631 1.512 1.647-1.128 2.278-3.158 2.142-3.406 4.917 0 0 4.781-2.278 5.796-3.902 1.015-1.624 3.654-4.15 3.902-2.391.248 1.759-3.406 4.533-4.781 6.18-1.376 1.646-7.443 6.18-9.202 8.187l-5.932-3.338Z" fill="#A88664"/><path d="M457.37 571.529s-1.015-3.541-2.008-5.187c-1.015-1.647.384-3.474 1.263-2.369.88 1.106 2.775 5.143 2.775 5.143l-2.03 2.413ZM460.91 568.191s-.879-1.962-1.759-3.496c-.88-1.511-.88-3.654.248-3.406 1.128.248 3.519 5.549 3.519 5.549l-2.008 1.353ZM467.203 568.868s1.263-3.632.88-5.211c-.384-1.578-1.579-2.435-1.895-.947-.316 1.489-.248 4.534-4.668 7.195l.766 2.391 4.917-3.428Z" fill="#A88664"/><path d="m451.393 576.401 1.759-2.053s5.751-.767 6.811 3.045l-1.015 2.526-7.555-3.518Z" fill="#fff"/><path d="M424.733 568.236s-13.262 10.646-7.353 26.524c0 0 13.781 19.419 21.72 16.149 7.939-3.271 20.547-28.982 20.299-31.892-.248-2.909-4.669-4.804-8.052-3.022l-13.24 16.51s-5.548-6.496-6.247-9.902c-.699-3.405-4.624-15.201-7.127-14.367Z" fill="#87189D"/><path d="M496.998 581.769c-.203.339.541-.18-13.69 8.097-.587.316-1.286.271-1.76 0-2.165-1.24-5.954-3.428-5.999-3.45-.338-.203-.496-.497-.496-.835 0-.406.113-.677.496-.925 13.938-8.097 13.375-7.781 13.487-7.826.564-.226 1.196-.158 1.579.09 6.18 3.586 6.045 3.451 6.225 3.631.316.271.361.88.158 1.218Z" fill="#989AAB"/><path d="M496.998 581.769c-.203.339.541-.18-13.69 8.097-.587.316-1.286.271-1.76 0-2.165-1.24-5.954-3.428-5.999-3.45-.338-.203-.496-.497-.496-.835 0-.406.113-.677.496-.925 13.938-8.097 13.375-7.781 13.487-7.826.564-.226 1.196-.158 1.579.09 6.18 3.586 6.045 3.451 6.225 3.631.316.271.361.88.158 1.218Z" fill="url(#n)"/><path d="M495.985 581.295c-.181.316.519-.158-13.059 7.736-.541.293-1.24.248-1.669 0-2.052-1.195-5.684-3.27-5.706-3.293-.316-.203-.474-.473-.474-.789 0-.384.09-.654.474-.88 13.307-7.736 12.743-7.42 12.856-7.465.541-.203 1.127-.136 1.511.067 5.886 3.406 5.751 3.293 5.932 3.451.293.271.315.857.135 1.173Z" fill="#fff"/><path d="M495.985 581.295c-.181.316.519-.158-13.059 7.736-.541.293-1.24.248-1.669 0-2.052-1.195-5.684-3.27-5.706-3.293-.316-.203-.474-.473-.474-.789 0-.384.09-.654.474-.88 13.307-7.736 12.743-7.42 12.856-7.465.541-.203 1.127-.136 1.511.067 5.886 3.406 5.751 3.293 5.932 3.451.293.271.315.857.135 1.173Z" fill="#E2E2E2"/><path d="M495.532 579.987c.406.226.406.632 0 .857-4.24 2.459-8.48 4.917-12.72 7.398-.406.226-1.06.226-1.489 0a739.86 739.86 0 0 0-5.706-3.293c-.406-.225-.406-.631 0-.857 4.24-2.458 8.48-4.917 12.721-7.398.406-.225 1.06-.225 1.488 0 1.895 1.083 3.789 2.188 5.706 3.293Z" fill="#fff"/><path d="M495.148 580.799c-19.735 11.48-7.127 4.15-11.547 6.698l-6.857-3.969c1.466-.857 10.894-6.338 11.548-6.699l6.856 3.97ZM490.932 577.8c.113-.068-.046-.159-.159-.091-.113.045.045.136.159.091ZM491.629 578.138c1.399.812 1.399.789 1.308.834-.022.023-.09.023-.112 0l-1.331-.767c-.068-.022.068-.09.135-.067Z" fill="#3F454F"/><path d="M479.27 586.505c-.112 0-.09 0-.766-.406-.091-.045-.091-.135.022-.203l.586-.338c.091-.045.226-.068.316-.023.925.542.947.384.023.925-.068.045-.113.045-.181.045Zm-.112-.045c.067.045.203.045.27-.023.654-.383.654-.36.654-.428 0-.045-.022-.045-.676-.429-.068-.045-.203-.045-.271.023l-.586.338c-.068.045-.091.091-.023.136 0 0-.135-.068.632.383ZM478.683 587.385l-.564-.338c-.135-.068-.135-.339 0-.249l.564.339c.113.068.113.316 0 .248ZM477.038 586.303c0 .113-.158.022-.158-.091 0-.113.158-.022.158.091ZM476.789 586.168c0 .113-.158.022-.158-.091 0-.136.158-.045.158.091ZM476.541 586.032c0 .113-.158.023-.158-.09 0-.136.158-.045.158.09ZM476.293 585.874c0 .113-.158.023-.158-.09 0-.113.158-.023.158.09ZM476.068 585.739c0 .113-.158.023-.158-.09 0-.113.158-.023.158.09ZM475.819 585.603c0 .113-.158.023-.158-.09 0-.113.158-.023.158.09ZM479.743 587.881c0 .113.158.204.158.091 0-.136-.158-.226-.158-.091ZM479.992 588.017c0 .113.158.203.158.09 0-.113-.158-.204-.158-.09ZM480.24 588.152c0 .113.158.203.158.09 0-.113-.158-.203-.158-.09ZM480.487 588.287c0 .113.159.204.159.091 0-.113-.159-.204-.159-.091ZM480.713 588.445c0 .113.158.203.158.09.023-.135-.158-.226-.158-.09ZM480.961 588.581c0 .113.158.203.158.09 0-.136-.158-.226-.158-.09Z" fill="#E0E3EB"/><path d="M823.621 605.496h4.256v-4.416h-1.664c-.128-1.632.8-2.624 2.752-2.976l-.416-1.664c-3.232.256-4.928 1.76-4.928 5.312v3.744Zm-7.424 0h4.256v-4.416h-1.632c-.16-1.632.768-2.624 2.72-2.976l-.416-1.664c-3.232.256-4.928 1.76-4.928 5.312v3.744Zm23.296 13.664h3.392l5.504-16.096 5.504 16.096h3.392l7.808-22.56h-4.128l-5.344 16.608-5.504-16.672h-3.328l-5.504 16.672-5.344-16.608h-4.256l7.808 22.56Zm29.958-.16h3.936v-9.44h10.688V619h3.936v-22.4h-3.936v9.312h-10.688V596.6h-3.936V619Zm22.713 0h4.032l2.304-5.408h10.592l2.272 5.408h4.16l-9.856-22.56h-3.648L892.164 619Zm7.776-8.896 3.84-8.96 3.872 8.96h-7.712ZM922.314 619h3.968v-18.752h7.104V596.6H915.21v3.648h7.104V619Zm-278.32 38h3.936v-7.2h4.448c4.928 0 8.96-2.624 8.96-7.648v-.064c0-4.512-3.296-7.488-8.512-7.488h-8.832V657Zm3.936-10.752v-8.064h4.576c2.944 0 4.832 1.376 4.832 4v.064c0 2.336-1.856 4-4.832 4h-4.576ZM665.689 657h16.768v-3.52h-12.832v-6.016h11.232v-3.52h-11.232v-5.824h12.672v-3.52h-16.608V657Zm21.757 0h3.936v-7.808h4.928l5.504 7.808h4.64l-6.048-8.48c3.136-.896 5.344-3.104 5.344-6.784v-.064c0-1.952-.672-3.616-1.856-4.832-1.44-1.408-3.648-2.24-6.464-2.24h-9.984V657Zm3.936-11.296v-7.52h5.728c2.912 0 4.64 1.312 4.64 3.712v.064c0 2.272-1.792 3.744-4.608 3.744h-5.76ZM710.891 657h3.872v-16l7.008 10.496h.128l7.072-10.56V657h3.936v-22.4h-4.192l-6.816 10.592-6.816-10.592h-4.192V657Zm28.325 0h3.936v-22.4h-3.936V657Zm18.093.32c4.704 0 8-2.496 8-6.688v-.064c0-3.712-2.464-5.408-7.2-6.56-4.288-1.024-5.312-1.792-5.312-3.52v-.064c0-1.472 1.344-2.656 3.648-2.656 2.048 0 4.064.8 6.08 2.304l2.112-2.976c-2.272-1.824-4.864-2.816-8.128-2.816-4.448 0-7.648 2.656-7.648 6.496v.064c0 4.128 2.688 5.536 7.456 6.688 4.16.96 5.056 1.824 5.056 3.424v.064c0 1.696-1.536 2.816-3.968 2.816-2.784 0-4.928-1.056-7.072-2.912l-2.368 2.816c2.688 2.4 5.92 3.584 9.344 3.584Zm20.476 0c4.704 0 8-2.496 8-6.688v-.064c0-3.712-2.464-5.408-7.2-6.56-4.288-1.024-5.312-1.792-5.312-3.52v-.064c0-1.472 1.344-2.656 3.648-2.656 2.048 0 4.064.8 6.08 2.304l2.112-2.976c-2.272-1.824-4.864-2.816-8.128-2.816-4.448 0-7.648 2.656-7.648 6.496v.064c0 4.128 2.688 5.536 7.456 6.688 4.16.96 5.056 1.824 5.056 3.424v.064c0 1.696-1.536 2.816-3.968 2.816-2.784 0-4.928-1.056-7.072-2.912l-2.368 2.816c2.688 2.4 5.92 3.584 9.344 3.584Zm13.173-.32h3.936v-22.4h-3.936V657Zm20.94.384c6.88 0 11.744-5.28 11.744-11.584v-.064c0-6.304-4.8-11.52-11.68-11.52s-11.744 5.28-11.744 11.584v.064c0 6.304 4.8 11.52 11.68 11.52Zm.064-3.616c-4.448 0-7.616-3.616-7.616-7.968v-.064c0-4.352 3.104-7.904 7.552-7.904 4.448 0 7.616 3.616 7.616 7.968v.064c0 4.352-3.104 7.904-7.552 7.904ZM828.717 657h3.872v-15.936L844.941 657h3.296v-22.4h-3.872v15.488l-12-15.488h-3.648V657Zm33.442.32c4.704 0 8-2.496 8-6.688v-.064c0-3.712-2.464-5.408-7.2-6.56-4.288-1.024-5.312-1.792-5.312-3.52v-.064c0-1.472 1.344-2.656 3.648-2.656 2.048 0 4.064.8 6.08 2.304l2.112-2.976c-2.272-1.824-4.864-2.816-8.128-2.816-4.448 0-7.648 2.656-7.648 6.496v.064c0 4.128 2.688 5.536 7.456 6.688 4.16.96 5.056 1.824 5.056 3.424v.064c0 1.696-1.536 2.816-3.968 2.816-2.784 0-4.928-1.056-7.072-2.912l-2.368 2.816c2.688 2.4 5.92 3.584 9.344 3.584Zm22.862-.32h8.352c7.04 0 11.904-4.896 11.904-11.2v-.064c0-6.304-4.864-11.136-11.904-11.136h-8.352V657Zm3.936-3.584v-15.232h4.416c4.704 0 7.776 3.232 7.776 7.616v.064c0 4.384-3.072 7.552-7.776 7.552h-4.416Zm32.103 3.968c6.88 0 11.744-5.28 11.744-11.584v-.064c0-6.304-4.8-11.52-11.68-11.52s-11.744 5.28-11.744 11.584v.064c0 6.304 4.8 11.52 11.68 11.52Zm.064-3.616c-4.448 0-7.616-3.616-7.616-7.968v-.064c0-4.352 3.104-7.904 7.552-7.904 4.448 0 7.616 3.616 7.616 7.968v.064c0 4.352-3.104 7.904-7.552 7.904ZM734.404 695h3.968v-8.928l8.896-13.472h-4.512l-6.336 9.92-6.272-9.92h-4.64l8.896 13.568V695Zm25.417.384c6.88 0 11.744-5.28 11.744-11.584v-.064c0-6.304-4.8-11.52-11.68-11.52s-11.744 5.28-11.744 11.584v.064c0 6.304 4.8 11.52 11.68 11.52Zm.064-3.616c-4.448 0-7.616-3.616-7.616-7.968v-.064c0-4.352 3.104-7.904 7.552-7.904 4.448 0 7.616 3.616 7.616 7.968v.064c0 4.352-3.104 7.904-7.552 7.904Zm25.939 3.584c5.856 0 9.632-3.36 9.632-10.048V672.6h-3.936v12.896c0 4.128-2.144 6.24-5.632 6.24-3.52 0-5.664-2.24-5.664-6.4V672.6h-3.936v12.896c0 6.496 3.712 9.856 9.536 9.856Zm25.268-.352h3.936v-9.44h10.688V695h3.936v-22.4h-3.936v9.312h-10.688V672.6h-3.936V695Zm22.713 0h4.032l2.304-5.408h10.592l2.272 5.408h4.16l-9.856-22.56h-3.648L833.805 695Zm7.776-8.896 3.84-8.96 3.872 8.96h-7.712Zm23.95 9.056h3.456l9.312-22.56h-4.256l-6.72 17.216-6.752-17.216h-4.352l9.312 22.56Zm16.928-.16h16.768v-3.52h-12.832v-6.016h11.232v-3.52h-11.232v-5.824h12.672v-3.52h-16.608V695Zm25.501-7.072h2.592l.32-2.592c3.552-.608 6.432-2.432 6.432-6.464v-.064c0-4-3.008-6.496-7.488-6.496-3.456 0-5.856 1.44-7.712 3.552l2.4 2.56c1.536-1.632 3.2-2.528 5.216-2.528 2.304 0 3.68 1.248 3.68 3.04V679c0 2.112-1.856 3.424-5.92 3.584l-.16.16.64 5.184Zm-.928 7.072h4.288v-4.384h-4.288V695Zm21.025-13.344c3.232-.256 4.928-1.76 4.928-5.312V672.6h-4.256v4.384h1.632c.16 1.664-.768 2.656-2.72 3.008l.416 1.664Zm-7.424 0c3.232-.256 4.928-1.76 4.928-5.312V672.6h-4.256v4.384h1.632c.16 1.664-.768 2.656-2.72 3.008l.416 1.664Z" fill="#87189D"/><defs><linearGradient id="a" x1="81" y1="276" x2="1200" y2="276" gradientUnits="userSpaceOnUse"><stop stop-color="#fff" stop-opacity=".2"/><stop offset="1" stop-color="#fff" stop-opacity=".8"/></linearGradient><linearGradient id="b" x1="81" y1="611" x2="1200" y2="611" gradientUnits="userSpaceOnUse"><stop stop-color="#fff" stop-opacity=".8"/><stop offset="1" stop-color="#fff" stop-opacity=".2"/></linearGradient><linearGradient id="c" x1="819.938" y1="243.38" x2="819.938" y2="382.276" gradientUnits="userSpaceOnUse"><stop stop-color="#fff"/><stop offset="1" stop-color="#fff" stop-opacity="0"/></linearGradient><linearGradient id="d" x1="819.411" y1="169.816" x2="819.411" y2="293.499" gradientUnits="userSpaceOnUse"><stop stop-color="#fff" stop-opacity=".59"/><stop offset="1" stop-color="#fff" stop-opacity="0"/></linearGradient><linearGradient id="e" x1="818.932" y1="200.295" x2="818.932" y2="240.69" gradientUnits="userSpaceOnUse"><stop stop-color="#fff"/><stop offset="1" stop-color="#fff" stop-opacity="0"/></linearGradient><linearGradient id="f" x1="828.568" y1="218.858" x2="828.568" y2="228.421" gradientUnits="userSpaceOnUse"><stop stop-color="#fff" stop-opacity=".59"/><stop offset="1" stop-color="#fff" stop-opacity="0"/></linearGradient><linearGradient id="g" x1="879.283" y1="214.583" x2="879.283" y2="226.605" gradientUnits="userSpaceOnUse"><stop stop-color="#fff" stop-opacity=".59"/><stop offset="1" stop-color="#fff" stop-opacity="0"/></linearGradient><linearGradient id="h" x1="794.788" y1="241.693" x2="794.788" y2="255.087" gradientUnits="userSpaceOnUse"><stop stop-color="#fff"/><stop offset="1" stop-color="#fff" stop-opacity="0"/></linearGradient><linearGradient id="i" x1="460.937" y1="578.38" x2="460.937" y2="717.276" gradientUnits="userSpaceOnUse"><stop stop-color="#fff"/><stop offset="1" stop-color="#fff" stop-opacity="0"/></linearGradient><linearGradient id="j" x1="461.463" y1="504.816" x2="461.463" y2="628.499" gradientUnits="userSpaceOnUse"><stop stop-color="#fff" stop-opacity=".59"/><stop offset="1" stop-color="#fff" stop-opacity="0"/></linearGradient><linearGradient id="k" x1="461.943" y1="535.295" x2="461.943" y2="575.69" gradientUnits="userSpaceOnUse"><stop stop-color="#fff"/><stop offset="1" stop-color="#fff" stop-opacity="0"/></linearGradient><linearGradient id="l" x1="452.306" y1="553.858" x2="452.306" y2="563.421" gradientUnits="userSpaceOnUse"><stop stop-color="#fff" stop-opacity=".59"/><stop offset="1" stop-color="#fff" stop-opacity="0"/></linearGradient><linearGradient id="m" x1="401.592" y1="549.583" x2="401.592" y2="561.605" gradientUnits="userSpaceOnUse"><stop stop-color="#fff" stop-opacity=".59"/><stop offset="1" stop-color="#fff" stop-opacity="0"/></linearGradient><linearGradient id="n" x1="486.087" y1="576.693" x2="486.087" y2="590.087" gradientUnits="userSpaceOnUse"><stop stop-color="#fff"/><stop offset="1" stop-color="#fff" stop-opacity="0"/></linearGradient></defs></svg>
